<?xml version="1.0" encoding="UTF-8"?>
<!DOCTYPE svg PUBLIC "-//W3C//DTD SVG 1.1//EN" "http://www.w3.org/Graphics/SVG/1.1/DTD/svg11.dtd">
<!-- Creator: CorelDRAW -->
<svg xmlns="http://www.w3.org/2000/svg" xml:space="preserve" width="32.138mm" height="52.0206mm" style="shape-rendering:geometricPrecision; text-rendering:geometricPrecision; image-rendering:optimizeQuality; fill-rule:evenodd; clip-rule:evenodd"
viewBox="0 0 11.0076 17.8176"
 xmlns:xlink="http://www.w3.org/1999/xlink">
 <defs>
  <style type="text/css">
   <![CDATA[
    .fil0 {fill:#1F1A17;fill-rule:nonzero}
   ]]>
  </style>
 </defs>
 <g id="Layer_x0020_1">
  <metadata id="CorelCorpID_0Corel-Layer"/>
  <g id="_102897904">
   <path id="_82717400" class="fil0" d="M4.5245 14.5903l0 2.59085 0.308568 0c0.214686,0 0.404231,-0.0284969 0.568602,-0.0854222 0.160603,-0.0556923 0.298806,-0.138991 0.414575,-0.249964l-0.000171255 -0.000171255 0.000137004 -0.000102753c0.00212357,-0.00215782 0.00428139,-0.00417863 0.00654196,-0.00609669 0.0300382,-0.0293874 0.0583296,-0.0606587 0.0848057,-0.093848 0.0275379,-0.0345251 0.0530207,-0.0711738 0.0764484,-0.109843 0.121523,-0.200883 0.182456,-0.453382 0.182456,-0.757394 0,-0.435229 -0.108816,-0.75849 -0.326447,-0.969854 -0.218693,-0.212391 -0.552915,-0.318569 -1.0026,-0.318569l0 0.000411013 -0.312918 0zm-0.615013 -0.618986l0.849358 0 0 0.000411013c0.709785,0 1.24527,0.16098 1.60641,0.482975 0.365082,0.325488 0.547641,0.808463 0.547641,1.44892 0,0.318193 -0.0517876,0.599154 -0.155226,0.842919 -0.104603,0.246402 -0.261404,0.453245 -0.470302,0.620561 -0.00208932,0.00164405 -0.00421288,0.00318535 -0.0063707,0.0046924 -0.187936,0.148787 -0.409814,0.260343 -0.665704,0.33453 -0.25589,0.0741536 -0.544832,0.111282 -0.866895,0.111282l-0.838912 0c-0.0586036,0 -0.10611,-0.0475063 -0.10611,-0.10611l0 -3.63407c0,-0.0586036 0.0475063,-0.10611 0.10611,-0.10611z"/>
   <path id="_82716944" class="fil0" d="M0.143752 13.9713l0.508937 0c0.0585694,0 0.106076,0.0475063 0.106076,0.10611l0 1.43378 1.43772 0 0 -1.43378c0,-0.0586036 0.0475063,-0.10611 0.106076,-0.10611l0.508937 0c0.0585694,0 0.106076,0.0475063 0.106076,0.10611l0 3.63407c0,0.0586036 -0.0475063,0.10611 -0.106076,0.10611l-0.508937 0c-0.0585694,0 -0.106076,-0.0475063 -0.106076,-0.10611l0 -1.57346 -1.43772 0 0 1.57346c0,0.0586036 -0.0475063,0.10611 -0.106076,0.10611l-0.508937 0c-0.0585694,0 -0.106076,-0.0475063 -0.106076,-0.10611l0 -3.63407c0,-0.0586036 0.0475063,-0.10611 0.106076,-0.10611z"/>
   <path id="_102896752" class="fil0" d="M6.98462 13.9717l2.53807 0c0.0583639,0 0.105699,0.047335 0.105699,0.105699l0.000411013 0 0 0.424234c0,0.0586036 -0.0475063,0.10611 -0.10611,0.10611l-0.911764 0 0 3.10373c0,0.0586036 -0.0475063,0.10611 -0.106076,0.10611l-0.511574 0c-0.0585694,0 -0.106076,-0.0475063 -0.106076,-0.10611l0 -3.10373 -0.911764 0c-0.0585694,0 -0.106076,-0.0475063 -0.106076,-0.10611l0 -0.424234c0,-0.0586036 0.0475063,-0.10611 0.106076,-0.10611 0.00311685,0 0.00613094,0.000171255 0.00917929,0.000411013z"/>
  </g>
  <path class="fil0" d="M0.970128 9.12086c0,0.267878 -0.21722,0.485098 -0.485064,0.485098 -0.267843,0 -0.485064,-0.21722 -0.485064,-0.485098l0 -5.37396c0,-0.146526 0.0649401,-0.277811 0.167693,-0.366761l-0.000274009 -0.00030826 3.75717 -3.26156c0.184819,-0.159918 0.455848,-0.1555 0.635186,0.000102753l0.000102753 -0.000102753 3.75676 3.26156c0.202698,0.175366 0.224824,0.482016 0.0494243,0.684713 -0.175366,0.202732 -0.482016,0.224858 -0.684713,0.0494586l-3.43912 -2.98577 -3.27211 2.84041 0 5.15222z"/>
  <path class="fil0" d="M10.5206 10.0841c0.26894,0 0.486982,0.218042 0.486982,0.486982 0,0.268905 -0.218042,0.486948 -0.486982,0.486948l-0.00739823 0 0 -0.00188381c-0.510855,-0.000582268 -1.00801,-0.0573363 -1.48509,-0.164405 -0.482187,-0.108199 -0.941939,-0.265617 -1.37326,-0.466534 -2.23348,-1.04031 -3.81379,-3.26218 -3.92302,-5.88091 -0.0105151,-0.267843 0.198177,-0.493592 0.46602,-0.504107 0.267843,-0.0104808 0.493627,0.198211 0.504107,0.466055 0.0934712,2.24149 1.44858,4.14431 3.3638,5.03638 0.37594,0.17516 0.769622,0.31076 1.17536,0.401834 0.410808,0.0922039 0.83672,0.141012 1.27209,0.141525l0 -0.00188381 0.00739823 0z"/>
 </g>
</svg>
