<?xml version="1.0" encoding="UTF-8"?>
<!DOCTYPE svg PUBLIC "-//W3C//DTD SVG 1.1//EN" "http://www.w3.org/Graphics/SVG/1.1/DTD/svg11.dtd">
<!-- Creator: CorelDRAW -->
<svg xmlns="http://www.w3.org/2000/svg" xml:space="preserve" width="60.5423mm" height="38.2227mm" style="shape-rendering:geometricPrecision; text-rendering:geometricPrecision; image-rendering:optimizeQuality; fill-rule:evenodd; clip-rule:evenodd"
viewBox="0 0 21.9187 13.8382"
 xmlns:xlink="http://www.w3.org/1999/xlink">
 <defs>
  <style type="text/css">
   <![CDATA[
    .str0 {stroke:#1F1A17;stroke-width:0.0993438;stroke-linecap:round;stroke-linejoin:round}
    .fil0 {fill:none;fill-rule:nonzero}
    .fil1 {fill:#1F1A17;fill-rule:nonzero}
    .fil2 {fill:#00679F;fill-rule:nonzero}
   ]]>
  </style>
 </defs>
 <g id="Layer_x0020_1">
  <metadata id="CorelCorpID_0Corel-Layer"/>
  <g>
   <path class="fil0 str0" d="M4.49491 2.30775l0 -1.57194 0.208282 0 0 0.645626 0.816907 0 0 -0.645626 0.208245 0 0 1.57194 -0.208245 0 0 -0.740806 -0.816907 0 0 0.740806 -0.208282 0zm1.57734 -0.765679c0,-0.260959 0.0699099,-0.465149 0.210056,-0.61268 0.140218,-0.147495 0.321021,-0.221388 0.542843,-0.221388 0.144888,0 0.275911,0.0347196 0.39227,0.103906 0.116396,0.0695841 0.205385,0.166176 0.266462,0.290284 0.0611486,0.123709 0.0915237,0.264543 0.0915237,0.421596 0,0.159551 -0.0318595,0.302303 -0.0962665,0.427823 -0.0643707,0.125918 -0.155569,0.221062 -0.273376,0.285831 -0.118206,0.0648052 -0.245246,0.0969905 -0.381735,0.0969905 -0.148219,0 -0.280364,-0.0355161 -0.396724,-0.107236 -0.116794,-0.0713581 -0.204987,-0.169073 -0.265013,-0.292746 -0.05999,-0.123383 -0.0900394,-0.254406 -0.0900394,-0.392379zm0.214509 0.00333077c0,0.189564 0.0508304,0.338507 0.1526,0.44759 0.102095,0.109083 0.229823,0.16357 0.383545,0.16357 0.156655,0 0.285469,-0.0548853 0.386514,-0.165018 0.101045,-0.110169 0.151876,-0.266425 0.151876,-0.468842 0,-0.127764 -0.0219758,-0.239381 -0.065131,-0.334887 -0.0432276,-0.0955424 -0.106548,-0.169435 -0.189637,-0.222184 -0.083414,-0.052351 -0.176748,-0.0786351 -0.280328,-0.0786351 -0.147459,0 -0.274101,0.0504322 -0.380251,0.151876 -0.106114,0.100973 -0.159189,0.270046 -0.159189,0.50653zm1.61137 0.762348l0 -1.57194 0.313309 0 0.371815 1.11298c0.0343938,0.10358 0.059628,0.181129 0.0750509,0.232756 0.0179572,-0.0570937 0.0457619,-0.141232 0.0838123,-0.252125l0.376232 -1.09361 0.279966 0 0 1.57194 -0.200534 0 0 -1.31573 -0.456786 1.31573 -0.187718 0 -0.454578 -1.33806 0 1.33806 -0.20057 0zm1.90122 0l0 -1.57194 1.13644 0 0 0.185582 -0.928524 0 0 0.48126 0.869584 0 0 0.184459 -0.869584 0 0 0.535059 0.965126 0 0 0.185582 -1.17305 0zm-9.74967 2.45318l0 -1.57194 0.541322 0c0.122261,0 0.215522,0.00771145 0.279966,0.0227361 0.0900032,0.0204915 0.1669,0.0581436 0.230583,0.112341 0.0827262,0.0702358 0.144925,0.159587 0.185908,0.268598 0.0413812,0.109083 0.0618364,0.233552 0.0618364,0.373698 0,0.119328 -0.0139023,0.225117 -0.0420329,0.317292 -0.0278409,0.0922478 -0.0633208,0.168747 -0.107272,0.229099 -0.0435172,0.0604607 -0.0911255,0.108033 -0.143078,0.142427 -0.0516269,0.0347558 -0.114224,0.0611124 -0.187392,0.0790696 -0.0735665,0.0178848 -0.157777,0.0266824 -0.252559,0.0266824l-0.567281 0zm0.207883 -0.185582l0.335575 0c0.10358,0 0.185256,-0.00952165 0.244124,-0.0288908 0.0589401,-0.0194053 0.105824,-0.0464859 0.140942,-0.0816038 0.0494185,-0.0490202 0.0878671,-0.115672 0.115274,-0.19876 0.0274788,-0.083414 0.0413812,-0.184061 0.0413812,-0.302991 0,-0.164366 -0.0270806,-0.29061 -0.0808798,-0.378875 -0.0541612,-0.0884826 -0.119727,-0.147459 -0.196914,-0.177472 -0.0556456,-0.0216138 -0.145721,-0.0321854 -0.268996,-0.0321854l-0.330506 0 0 1.20078zm1.44335 0.185582l0 -1.57194 1.13644 0 0 0.185582 -0.928524 0 0 0.48126 0.869584 0 0 0.184496 -0.869584 0 0 0.535023 0.965126 0 0 0.185582 -1.17305 0zm1.51253 0l0 -1.57194 0.208318 0 0 1.38636 0.774078 0 0 0.185582 -0.982396 0zm1.3267 0l0 -1.57194 0.20792 0 0 1.57194 -0.20792 0zm1.08474 0l-0.609024 -1.57194 0.225479 0 0.408417 1.14191c0.0329456,0.0915237 0.0603883,0.177508 0.0823641,0.257266 0.0244739,-0.0856587 0.0526768,-0.171281 0.0849346,-0.257266l0.424528 -1.14191 0.212264 0 -0.615577 1.57194 -0.213386 0zm1.08102 0l0 -1.57194 1.13641 0 0 0.185582 -0.928524 0 0 0.48126 0.869584 0 0 0.184496 -0.869584 0 0 0.535023 0.965163 0 0 0.185582 -1.17305 0zm1.52466 0l0 -1.57194 0.696819 0c0.140182,0 0.246658,0.0143006 0.3195,0.0424311 0.0728425,0.0282029 0.131022,0.0780196 0.174938,0.149378 0.0435896,0.0717201 0.065131,0.150753 0.065131,0.237136 0,0.111617 -0.0358058,0.205349 -0.108286,0.281848 -0.0721184,0.0764991 -0.183735,0.125121 -0.334525,0.146011 0.0552835,0.0263565 0.0969905,0.052351 0.125519,0.0783455 0.0607865,0.0556094 0.118206,0.125519 0.172802,0.208933l0.27334 0.427859 -0.261683 0 -0.207883 -0.327212c-0.0607865,-0.094058 -0.110893,-0.166502 -0.150391,-0.216247 -0.0391727,-0.050215 -0.0742906,-0.0853329 -0.105426,-0.1051 -0.0311354,-0.0200932 -0.0625967,-0.0339956 -0.0947821,-0.0420329 -0.0238222,-0.00477893 -0.0621985,-0.00738562 -0.116034,-0.00738562l-0.241191 0 0 0.697977 -0.207847 0zm0.207847 -0.877983l0.447264 0c0.0947821,0 0.169435,-0.0099199 0.222908,-0.0296511 0.053763,-0.0197674 0.0943839,-0.0512287 0.122189,-0.0944563 0.0278771,-0.0431914 0.0417794,-0.0900032 0.0417794,-0.140906 0,-0.0742906 -0.0267548,-0.135403 -0.0809522,-0.183373 -0.0537992,-0.0478979 -0.139023,-0.0717201 -0.255818,-0.0717201l-0.497371 0 0 0.520107zm1.83902 0.877983l0 -0.665719 -0.605729 -0.906223 0.252849 0 0.310015 0.473983c0.0570937,0.088555 0.110169,0.177146 0.159587,0.266063 0.0471738,-0.0823279 0.104304,-0.174938 0.171679,-0.277757l0.304512 -0.462289 0.242277 0 -0.627343 0.906223 0 0.665719 -0.207847 0zm-4.90086 2.45322l0 -1.38636 -0.51779 0 0 -0.185582 1.24582 0 0 0.185582 -0.520107 0 0 1.38636 -0.20792 0zm1.0068 0l0 -1.57194 1.13644 0 0 0.185582 -0.928524 0 0 0.48126 0.869584 0 0 0.184459 -0.869584 0 0 0.535059 0.965126 0 0 0.185582 -1.17305 0zm1.34864 0l0.603847 -1.57194 0.22403 0 0.643418 1.57194 -0.237209 0 -0.183373 -0.476191 -0.657284 0 -0.172403 0.476191 -0.221025 0zm0.453455 -0.645626l0.533249 0 -0.164366 -0.435136c-0.0497443,-0.132181 -0.0870706,-0.240865 -0.111219,-0.32609 -0.0201294,0.100973 -0.0483324,0.200896 -0.0849346,0.300457l-0.172729 0.460768zm1.23839 0.645626l0 -1.57194 0.313309 0 0.371815 1.11298c0.0343938,0.10358 0.0596642,0.181129 0.0750509,0.232792 0.0179572,-0.0571299 0.0457619,-0.141268 0.0838123,-0.252161l0.376232 -1.09361 0.279966 0 0 1.57194 -0.200498 0 0 -1.31573 -0.456786 1.31573 -0.187754 0 -0.454578 -1.33806 0 1.33806 -0.20057 0z"/>
   <path id="1" class="fil1" d="M4.49491 2.30775l0 -1.57194 0.208282 0 0 0.645626 0.816907 0 0 -0.645626 0.208245 0 0 1.57194 -0.208245 0 0 -0.740806 -0.816907 0 0 0.740806 -0.208282 0zm1.57734 -0.765679c0,-0.260959 0.0699099,-0.465149 0.210056,-0.61268 0.140218,-0.147495 0.321021,-0.221388 0.542843,-0.221388 0.144888,0 0.275911,0.0347196 0.39227,0.103906 0.116396,0.0695841 0.205385,0.166176 0.266462,0.290284 0.0611486,0.123709 0.0915237,0.264543 0.0915237,0.421596 0,0.159551 -0.0318595,0.302303 -0.0962665,0.427823 -0.0643707,0.125918 -0.155569,0.221062 -0.273376,0.285831 -0.118206,0.0648052 -0.245246,0.0969905 -0.381735,0.0969905 -0.148219,0 -0.280364,-0.0355161 -0.396724,-0.107236 -0.116794,-0.0713581 -0.204987,-0.169073 -0.265013,-0.292746 -0.05999,-0.123383 -0.0900394,-0.254406 -0.0900394,-0.392379zm0.214509 0.00333077c0,0.189564 0.0508304,0.338507 0.1526,0.44759 0.102095,0.109083 0.229823,0.16357 0.383545,0.16357 0.156655,0 0.285469,-0.0548853 0.386514,-0.165018 0.101045,-0.110169 0.151876,-0.266425 0.151876,-0.468842 0,-0.127764 -0.0219758,-0.239381 -0.065131,-0.334887 -0.0432276,-0.0955424 -0.106548,-0.169435 -0.189637,-0.222184 -0.083414,-0.052351 -0.176748,-0.0786351 -0.280328,-0.0786351 -0.147459,0 -0.274101,0.0504322 -0.380251,0.151876 -0.106114,0.100973 -0.159189,0.270046 -0.159189,0.50653zm1.61137 0.762348l0 -1.57194 0.313309 0 0.371815 1.11298c0.0343938,0.10358 0.059628,0.181129 0.0750509,0.232756 0.0179572,-0.0570937 0.0457619,-0.141232 0.0838123,-0.252125l0.376232 -1.09361 0.279966 0 0 1.57194 -0.200534 0 0 -1.31573 -0.456786 1.31573 -0.187718 0 -0.454578 -1.33806 0 1.33806 -0.20057 0zm1.90122 0l0 -1.57194 1.13644 0 0 0.185582 -0.928524 0 0 0.48126 0.869584 0 0 0.184459 -0.869584 0 0 0.535059 0.965126 0 0 0.185582 -1.17305 0zm-9.74967 2.45318l0 -1.57194 0.541322 0c0.122261,0 0.215522,0.00771145 0.279966,0.0227361 0.0900032,0.0204915 0.1669,0.0581436 0.230583,0.112341 0.0827262,0.0702358 0.144925,0.159587 0.185908,0.268598 0.0413812,0.109083 0.0618364,0.233552 0.0618364,0.373698 0,0.119328 -0.0139023,0.225117 -0.0420329,0.317292 -0.0278409,0.0922478 -0.0633208,0.168747 -0.107272,0.229099 -0.0435172,0.0604607 -0.0911255,0.108033 -0.143078,0.142427 -0.0516269,0.0347558 -0.114224,0.0611124 -0.187392,0.0790696 -0.0735665,0.0178848 -0.157777,0.0266824 -0.252559,0.0266824l-0.567281 0zm0.207883 -0.185582l0.335575 0c0.10358,0 0.185256,-0.00952165 0.244124,-0.0288908 0.0589401,-0.0194053 0.105824,-0.0464859 0.140942,-0.0816038 0.0494185,-0.0490202 0.0878671,-0.115672 0.115274,-0.19876 0.0274788,-0.083414 0.0413812,-0.184061 0.0413812,-0.302991 0,-0.164366 -0.0270806,-0.29061 -0.0808798,-0.378875 -0.0541612,-0.0884826 -0.119727,-0.147459 -0.196914,-0.177472 -0.0556456,-0.0216138 -0.145721,-0.0321854 -0.268996,-0.0321854l-0.330506 0 0 1.20078zm1.44335 0.185582l0 -1.57194 1.13644 0 0 0.185582 -0.928524 0 0 0.48126 0.869584 0 0 0.184496 -0.869584 0 0 0.535023 0.965126 0 0 0.185582 -1.17305 0zm1.51253 0l0 -1.57194 0.208318 0 0 1.38636 0.774078 0 0 0.185582 -0.982396 0zm1.3267 0l0 -1.57194 0.20792 0 0 1.57194 -0.20792 0zm1.08474 0l-0.609024 -1.57194 0.225479 0 0.408417 1.14191c0.0329456,0.0915237 0.0603883,0.177508 0.0823641,0.257266 0.0244739,-0.0856587 0.0526768,-0.171281 0.0849346,-0.257266l0.424528 -1.14191 0.212264 0 -0.615577 1.57194 -0.213386 0zm1.08102 0l0 -1.57194 1.13641 0 0 0.185582 -0.928524 0 0 0.48126 0.869584 0 0 0.184496 -0.869584 0 0 0.535023 0.965163 0 0 0.185582 -1.17305 0zm1.52466 0l0 -1.57194 0.696819 0c0.140182,0 0.246658,0.0143006 0.3195,0.0424311 0.0728425,0.0282029 0.131022,0.0780196 0.174938,0.149378 0.0435896,0.0717201 0.065131,0.150753 0.065131,0.237136 0,0.111617 -0.0358058,0.205349 -0.108286,0.281848 -0.0721184,0.0764991 -0.183735,0.125121 -0.334525,0.146011 0.0552835,0.0263565 0.0969905,0.052351 0.125519,0.0783455 0.0607865,0.0556094 0.118206,0.125519 0.172802,0.208933l0.27334 0.427859 -0.261683 0 -0.207883 -0.327212c-0.0607865,-0.094058 -0.110893,-0.166502 -0.150391,-0.216247 -0.0391727,-0.050215 -0.0742906,-0.0853329 -0.105426,-0.1051 -0.0311354,-0.0200932 -0.0625967,-0.0339956 -0.0947821,-0.0420329 -0.0238222,-0.00477893 -0.0621985,-0.00738562 -0.116034,-0.00738562l-0.241191 0 0 0.697977 -0.207847 0zm0.207847 -0.877983l0.447264 0c0.0947821,0 0.169435,-0.0099199 0.222908,-0.0296511 0.053763,-0.0197674 0.0943839,-0.0512287 0.122189,-0.0944563 0.0278771,-0.0431914 0.0417794,-0.0900032 0.0417794,-0.140906 0,-0.0742906 -0.0267548,-0.135403 -0.0809522,-0.183373 -0.0537992,-0.0478979 -0.139023,-0.0717201 -0.255818,-0.0717201l-0.497371 0 0 0.520107zm1.83902 0.877983l0 -0.665719 -0.605729 -0.906223 0.252849 0 0.310015 0.473983c0.0570937,0.088555 0.110169,0.177146 0.159587,0.266063 0.0471738,-0.0823279 0.104304,-0.174938 0.171679,-0.277757l0.304512 -0.462289 0.242277 0 -0.627343 0.906223 0 0.665719 -0.207847 0zm-4.90086 2.45322l0 -1.38636 -0.51779 0 0 -0.185582 1.24582 0 0 0.185582 -0.520107 0 0 1.38636 -0.20792 0zm1.0068 0l0 -1.57194 1.13644 0 0 0.185582 -0.928524 0 0 0.48126 0.869584 0 0 0.184459 -0.869584 0 0 0.535059 0.965126 0 0 0.185582 -1.17305 0zm1.34864 0l0.603847 -1.57194 0.22403 0 0.643418 1.57194 -0.237209 0 -0.183373 -0.476191 -0.657284 0 -0.172403 0.476191 -0.221025 0zm0.453455 -0.645626l0.533249 0 -0.164366 -0.435136c-0.0497443,-0.132181 -0.0870706,-0.240865 -0.111219,-0.32609 -0.0201294,0.100973 -0.0483324,0.200896 -0.0849346,0.300457l-0.172729 0.460768zm1.23839 0.645626l0 -1.57194 0.313309 0 0.371815 1.11298c0.0343938,0.10358 0.0596642,0.181129 0.0750509,0.232792 0.0179572,-0.0571299 0.0457619,-0.141268 0.0838123,-0.252161l0.376232 -1.09361 0.279966 0 0 1.57194 -0.200498 0 0 -1.31573 -0.456786 1.31573 -0.187754 0 -0.454578 -1.33806 0 1.33806 -0.20057 0z"/>
  </g>
  <path class="fil1" d="M16.8836 11.3316l0 2.01218 0.239634 0c0.166756,0 0.313961,-0.0221206 0.441617,-0.0663257 0.124759,-0.0432638 0.232068,-0.10796 0.321998,-0.194126l-0.000144816 -0.000144816 0.000108612 -0.000108612c0.00166538,-0.00162918 0.00333077,-0.00322216 0.00510477,-0.00470652 0.0233154,-0.0228085 0.0452912,-0.0471376 0.0658189,-0.0728787 0.0213966,-0.0268272 0.0412002,-0.0552835 0.0593746,-0.0853329 0.0944201,-0.156003 0.141739,-0.352084 0.141739,-0.588207 0,-0.338037 -0.0845364,-0.589075 -0.253537,-0.753261 -0.169869,-0.164945 -0.429416,-0.247418 -0.778676,-0.247418l0 0.000325836 -0.243038 0zm-0.477639 -0.480717l0.659673 0 0 0.000289632c0.551242,0 0.967118,0.125012 1.24763,0.37511 0.283514,0.252813 0.425289,0.627886 0.425289,1.12533 0,0.247092 -0.0402227,0.46533 -0.120559,0.654641 -0.0812056,0.191374 -0.202996,0.352012 -0.365262,0.481948 -0.00159298,0.00130334 -0.00325836,0.00249808 -0.00492375,0.0036566 -0.145975,0.115563 -0.318306,0.202199 -0.517029,0.2598 -0.198724,0.0576368 -0.423152,0.086419 -0.673286,0.086419l-0.651527 0c-0.0455084,0 -0.0824003,-0.0368919 -0.0824003,-0.0823641l0 -2.82243c0,-0.0455084 0.0368919,-0.0824003 0.0824003,-0.0824003z"/>
  <path class="fil1" d="M13.4813 10.8509l0.395239 0c0.0455084,0 0.0824003,0.0368919 0.0824003,0.0824003l0 1.11353 1.1166 0 0 -1.11353c0,-0.0455084 0.0368919,-0.0824003 0.0824003,-0.0824003l0.395239 0c0.0455084,0 0.0824003,0.0368919 0.0824003,0.0824003l0 2.82243c0,0.0454722 -0.0368919,0.0823641 -0.0824003,0.0823641l-0.395239 0c-0.0455084,0 -0.0824003,-0.0368919 -0.0824003,-0.0823641l0 -1.22207 -1.1166 0 0 1.22207c0,0.0454722 -0.0368919,0.0823641 -0.0824003,0.0823641l-0.395239 0c-0.0455084,0 -0.0824003,-0.0368919 -0.0824003,-0.0823641l0 -2.82243c0,-0.0455084 0.0368919,-0.0824003 0.0824003,-0.0824003z"/>
  <path class="fil1" d="M18.7943 10.8512l1.9712 0c0.0453274,0 0.0820745,0.0367833 0.0820745,0.0821107l0.000325836 0 0 0.329493c0,0.0454722 -0.0368919,0.0824003 -0.0824003,0.0824003l-0.708114 0 0 2.41054c0,0.0454722 -0.0368919,0.0823641 -0.0824003,0.0823641l-0.397303 0c-0.0454722,0 -0.0824003,-0.0368919 -0.0824003,-0.0823641l0 -2.41054 -0.708114 0c-0.0455084,0 -0.0824003,-0.0369281 -0.0824003,-0.0824003l0 -0.329493c0,-0.0455084 0.0368919,-0.0824003 0.0824003,-0.0824003 0.00242567,0 0.00477893,0.000108612 0.00713219,0.000289632z"/>
  <path class="fil2" d="M14.1231 7.08379c0,0.207992 -0.168711,0.376703 -0.376703,0.376703 -0.208028,0 -0.376739,-0.168711 -0.376739,-0.376703l0 -4.17374c0,-0.113789 0.0504322,-0.215776 0.130226,-0.284853l-0.000217224 -0.000253428 2.91804 -2.53309c0.143513,-0.12418 0.354003,-0.12074 0.493316,7.2408e-005l7.2408e-005 -7.2408e-005 2.91772 2.53309c0.157415,0.136236 0.174612,0.374386 0.0383763,0.531801 -0.136199,0.157451 -0.374349,0.174648 -0.531801,0.0384125l-2.67099 -2.3189 -2.5413 2.20602 0 4.00152z"/>
  <path class="fil2" d="M21.5405 7.83183c0.208861,0 0.378223,0.169362 0.378223,0.378223 0,0.208861 -0.169362,0.378187 -0.378223,0.378187l-0.00575644 0 0 -0.00148436c-0.396724,-0.000434448 -0.782839,-0.0444947 -1.15339,-0.127655 -0.374494,-0.0840295 -0.731574,-0.20629 -1.06653,-0.36233 -1.73464,-0.807965 -2.96203,-2.53359 -3.04686,-4.56746 -0.0081459,-0.207992 0.153939,-0.383364 0.361968,-0.39151 0.207992,-0.0081459 0.383328,0.153939 0.39151,0.361968 0.072589,1.74087 1.12504,3.21868 2.61248,3.91155 0.291985,0.136018 0.597728,0.241336 0.912848,0.312079 0.319066,0.0715753 0.649862,0.109517 0.987971,0.109915l0 -0.00148436 0.00575644 0z"/>
 </g>
</svg>
