<?xml version="1.0" encoding="UTF-8"?>
<!DOCTYPE svg PUBLIC "-//W3C//DTD SVG 1.1//EN" "http://www.w3.org/Graphics/SVG/1.1/DTD/svg11.dtd">
<!-- Creator: CorelDRAW -->
<svg xmlns="http://www.w3.org/2000/svg" xml:space="preserve" width="36.559mm" height="36.7263mm" style="shape-rendering:geometricPrecision; text-rendering:geometricPrecision; image-rendering:optimizeQuality; fill-rule:evenodd; clip-rule:evenodd"
viewBox="0 0 9.49526 9.53871"
 xmlns:xlink="http://www.w3.org/1999/xlink">
 <defs>
  <style type="text/css">
   <![CDATA[
    .fil0 {fill:#00679F;fill-rule:nonzero}
   ]]>
  </style>
 </defs>
 <g id="Layer_x0020_1">
  <metadata id="CorelCorpID_0Corel-Layer"/>
  <path class="fil0" d="M0.836858 7.86775c0,0.231025 -0.187365,0.418416 -0.418416,0.418416 -0.231051,0 -0.418442,-0.187391 -0.418442,-0.418416l0 -4.63564c0,-0.126408 0.0560225,-0.239674 0.14464,-0.316396l-0.000207779 -0.000259724 3.24094 -2.81344c0.159419,-0.13794 0.393223,-0.134122 0.54794,7.79173e-005l7.79173e-005 -7.79173e-005 3.24061 2.81344c0.174872,0.151289 0.193962,0.415793 0.0426467,0.590665 -0.151289,0.174846 -0.415793,0.193936 -0.590665,0.0426467l-2.9666 -2.57556 -2.82253 2.45019 0 4.44435z"/>
  <path class="fil0" d="M9.07521 8.69858c0.23196,0 0.420052,0.188092 0.420052,0.420078 0,0.231986 -0.188092,0.420052 -0.420052,0.420052l-0.00638922 0 0 -0.00163626c-0.440674,-0.000493476 -0.869531,-0.0494255 -1.28106,-0.141783 -0.415948,-0.0933449 -0.812521,-0.229155 -1.18458,-0.402443 -1.92661,-0.897399 -3.28982,-2.81398 -3.38405,-5.07293 -0.00903841,-0.231051 0.170977,-0.425792 0.402001,-0.43483 0.231051,-0.00906438 0.425792,0.170951 0.434856,0.402001 0.0806444,1.93354 1.24953,3.57492 2.90161,4.34443 0.324292,0.151082 0.663907,0.268061 1.01389,0.346628 0.354394,0.0795276 0.721774,0.121655 1.09734,0.122096l0 -0.00166224 0.00638922 0z"/>
 </g>
</svg>
