<?xml version="1.0" encoding="UTF-8"?>
<!DOCTYPE svg PUBLIC "-//W3C//DTD SVG 1.1//EN" "http://www.w3.org/Graphics/SVG/1.1/DTD/svg11.dtd">
<!-- Creator: CorelDRAW -->
<svg xmlns="http://www.w3.org/2000/svg" xml:space="preserve" width="70.4682mm" height="13.2406mm" style="shape-rendering:geometricPrecision; text-rendering:geometricPrecision; image-rendering:optimizeQuality; fill-rule:evenodd; clip-rule:evenodd"
viewBox="0 0 28.0188 5.26458"
 xmlns:xlink="http://www.w3.org/1999/xlink">
 <defs>
  <style type="text/css">
   <![CDATA[
    .fil0 {fill:#00679F;fill-rule:nonzero}
   ]]>
  </style>
 </defs>
 <g id="Layer_x0020_1">
  <metadata id="CorelCorpID_0Corel-Layer"/>
  <path class="fil0" d="M0.572954 0.965315l0 1.09931c0.185206,-0.215822 0.405879,-0.324449 0.662774,-0.324449 0.132284,0 0.250613,0.0250891 0.357132,0.0737962 0.105843,0.0487468 0.185882,0.11141 0.23952,0.187274 0.0535977,0.0765794 0.0904958,0.160833 0.109979,0.253436 0.0201985,0.0918874 0.0299399,0.235981 0.0299399,0.430213l0 1.27056 -0.572954 0 0 -1.14452c0,-0.226955 -0.011133,-0.371088 -0.0327232,-0.43236 -0.0222661,-0.0612317 -0.0605558,-0.109303 -0.115585,-0.145485 -0.0549893,-0.0362222 -0.123895,-0.0543134 -0.206757,-0.0543134 -0.0953863,0 -0.180316,0.0229818 -0.254788,0.0696213 -0.0751878,0.0459636 -0.130217,0.115585 -0.164332,0.208864 -0.0347908,0.093279 -0.052206,0.23113 -0.052206,0.412837l0 1.08535 -0.572954 0 0 -2.99014 0.572954 0zm4.08296 2.99014l-0.531881 0 0 -0.318167c-0.0884282,0.123935 -0.19288,0.215822 -0.313316,0.276378 -0.120436,0.0605956 -0.241547,0.0905355 -0.36409,0.0905355 -0.249221,0 -0.46226,-0.100277 -0.639792,-0.300751 -0.176856,-0.200514 -0.26596,-0.480391 -0.26596,-0.838915 0,-0.367589 0.0863209,-0.64675 0.259002,-0.837523 0.172642,-0.190733 0.391247,-0.286835 0.6551,-0.286835 0.241587,0 0.451127,0.100953 0.627944,0.302143l0 -1.077 0.572994 0 0 2.99014zm-1.52952 -1.12992c0,0.23113 0.0320075,0.398245 0.0960623,0.501981 0.0918874,0.148984 0.221389,0.224172 0.387072,0.224172 0.132284,0 0.24437,-0.0564207 0.336973,-0.168507 0.0918874,-0.112086 0.138527,-0.279837 0.138527,-0.502617 0,-0.248545 -0.0452479,-0.428185 -0.134352,-0.537488 -0.0898198,-0.109303 -0.204689,-0.164292 -0.345323,-0.164292 -0.135744,0 -0.249221,0.0543134 -0.341148,0.162224 -0.0918874,0.107911 -0.137811,0.26942 -0.137811,0.484526zm3.20365 -1.03593l0 0.456733 -0.391247 0 0 0.87299c0,0.176856 0.0034592,0.279877 0.011133,0.309101 0.00763409,0.029264 0.0243734,0.0529217 0.0508144,0.0724046 0.026441,0.0188069 0.0591642,0.0285483 0.096778,0.0285483 0.0535977,0 0.130177,-0.0187671 0.23113,-0.0549893l0.0487071 0.444169c-0.133636,0.0570966 -0.284012,0.0856449 -0.453194,0.0856449 -0.10302,0 -0.196339,-0.0174153 -0.279161,-0.0515301 -0.0828617,-0.0348305 -0.143417,-0.0800784 -0.182423,-0.135068 -0.0389657,-0.0549893 -0.0654464,-0.129501 -0.0807543,-0.223456 -0.0118487,-0.0661621 -0.0180912,-0.20123 -0.0180912,-0.403811l0 -0.944003 -0.263177 0 0 -0.456733 0.263177 0 0 -0.430928 0.575062 -0.33415 0 0.765079 0.391247 0zm1.76813 1.47664l0.571563 0.0953863c-0.0737962,0.20954 -0.189381,0.368941 -0.348106,0.478244 -0.15801,0.110018 -0.356416,0.164332 -0.594544,0.164332 -0.376615,0 -0.6551,-0.122543 -0.836092,-0.368981 -0.142742,-0.197015 -0.21443,-0.446276 -0.21443,-0.746312 0,-0.35924 0.0939947,-0.640508 0.281944,-0.843805 0.187274,-0.203258 0.424686,-0.304926 0.711521,-0.304926 0.322302,0 0.576413,0.106519 0.763011,0.319558 0.185882,0.213039 0.274986,0.538839 0.267312,0.978157l-1.4362 0c0.00417489,0.169858 0.0500987,0.302143 0.138527,0.396138 0.0884282,0.0946706 0.199122,0.141986 0.330691,0.141986 0.0898198,0 0.165008,-0.0243337 0.226239,-0.0730805 0.0612715,-0.0494228 0.107911,-0.12811 0.138567,-0.236696zm0.0327232 -0.579236c-0.00417489,-0.166399 -0.0466395,-0.292401 -0.12811,-0.378722 -0.08147,-0.0863209 -0.180992,-0.129501 -0.297968,-0.129501 -0.125326,0 -0.228347,0.0459636 -0.309817,0.137175 -0.0814303,0.0904958 -0.121827,0.214391 -0.120436,0.371048l0.85633 0zm1.58085 -0.236696l-0.520072 -0.0939947c0.0584882,-0.20954 0.158725,-0.36409 0.301467,-0.465043 0.143417,-0.100277 0.355065,-0.151091 0.636293,-0.151091 0.256219,0 0.446276,0.0306556 0.571602,0.0912114 0.124611,0.0605558 0.212999,0.137135 0.263853,0.230454 0.0508144,0.093279 0.0765794,0.263853 0.0765794,0.513074l-0.00628222 0.669016c0,0.190097 0.00906548,0.330691 0.0278326,0.421227 0.018131,0.0897801 0.0529217,0.187274 0.10306,0.290294l-0.567388 0c-0.014632,-0.0382897 -0.0334389,-0.0946706 -0.0550291,-0.169183 -0.00902572,-0.0341148 -0.0159839,-0.0563809 -0.0201588,-0.067514 -0.0981696,0.0953863 -0.202621,0.166399 -0.313992,0.21443 -0.11141,0.0473154 -0.230454,0.0710129 -0.357132,0.0710129 -0.22278,0 -0.398921,-0.0605956 -0.52703,-0.181031 -0.128785,-0.121112 -0.19284,-0.274271 -0.19284,-0.459477 0,-0.121827 0.0292242,-0.23113 0.0877125,-0.327192 0.0584882,-0.096102 0.140634,-0.169183 0.245762,-0.219997 0.105128,-0.0508144 0.257571,-0.0953863 0.456017,-0.133676 0.267312,-0.0501385 0.453194,-0.0974539 0.556255,-0.140634l0 -0.0570966c0,-0.110694 -0.0271567,-0.188665 -0.08147,-0.235981 -0.0543134,-0.0466793 -0.156658,-0.070337 -0.307709,-0.070337 -0.102344,0 -0.181707,0.0201985 -0.238804,0.0605558 -0.0570966,0.0397211 -0.10302,0.110018 -0.138527,0.210971zm0.76651 0.465043c-0.0731203,0.0243734 -0.189381,0.0535977 -0.348822,0.0877125 -0.158725,0.0341148 -0.262462,0.0675537 -0.311884,0.0995612 -0.0744721,0.0535977 -0.112086,0.120436 -0.112086,0.201906 0,0.0807543 0.0299399,0.14966 0.0898198,0.208148 0.0598799,0.0584882 0.135744,0.0877125 0.228347,0.0877125 0.103736,0 0.201906,-0.0341148 0.295861,-0.101629 0.0696213,-0.0515301 0.114869,-0.114869 0.136459,-0.190057 0.0153079,-0.0487468 0.0223059,-0.142026 0.0223059,-0.279161l0 -0.114193zm1.20141 -1.12575l0.528422 0 0 0.295185c0.188665,-0.229738 0.414229,-0.344608 0.675299,-0.344608 0.138527,0 0.258963,0.0285483 0.360591,0.0856449 0.102344,0.0570966 0.185882,0.143417 0.251328,0.258963 0.0947104,-0.115545 0.197731,-0.201866 0.307709,-0.258963 0.110018,-0.0570966 0.227671,-0.0856449 0.352997,-0.0856449 0.158725,0 0.293793,0.0327232 0.403772,0.0974937 0.110018,0.064015 0.192164,0.159401 0.246438,0.284012 0.0396814,0.0926031 0.0592039,0.242303 0.0592039,0.449059l0 1.38471 -0.572994 0 0 -1.23784c0,-0.215106 -0.0194828,-0.353633 -0.0591642,-0.416296 -0.0529217,-0.08147 -0.134352,-0.122543 -0.24437,-0.122543 -0.0807543,0 -0.155942,0.0243734 -0.226955,0.0737962 -0.0702972,0.0487468 -0.121112,0.120436 -0.152443,0.215146 -0.0313316,0.0946706 -0.0473552,0.243655 -0.0473552,0.447628l0 1.0401 -0.572954 0 0 -1.18698c0,-0.210971 -0.0104571,-0.346715 -0.0306159,-0.407986 -0.0201985,-0.0612715 -0.0522458,-0.106519 -0.0947104,-0.136459 -0.0431406,-0.0299399 -0.100953,-0.0452479 -0.174749,-0.0452479 -0.0883884,0 -0.167751,0.0236577 -0.238088,0.0717286 -0.0710129,0.0473154 -0.121827,0.116261 -0.152443,0.206041 -0.0306556,0.0898198 -0.0459636,0.238128 -0.0459636,0.446276l0 1.05263 -0.572954 0 0 -2.16585zm3.87339 2.16585l0 -0.572954 0.572954 0 0 0.572954 -0.572954 0zm1.23342 -2.16585l0.528422 0 0 0.295185c0.188665,-0.229738 0.414229,-0.344608 0.675299,-0.344608 0.138527,0 0.258963,0.0285483 0.360591,0.0856449 0.102344,0.0570966 0.185882,0.143417 0.251328,0.258963 0.0947104,-0.115545 0.197731,-0.201866 0.307709,-0.258963 0.110018,-0.0570966 0.227671,-0.0856449 0.352997,-0.0856449 0.158725,0 0.293793,0.0327232 0.403772,0.0974937 0.110018,0.064015 0.192164,0.159401 0.246438,0.284012 0.0396814,0.0926031 0.0592039,0.242303 0.0592039,0.449059l0 1.38471 -0.572994 0 0 -1.23784c0,-0.215106 -0.0194828,-0.353633 -0.0591642,-0.416296 -0.0529217,-0.08147 -0.134352,-0.122543 -0.24437,-0.122543 -0.0807543,0 -0.155942,0.0243734 -0.226955,0.0737962 -0.0702972,0.0487468 -0.121112,0.120436 -0.152443,0.215146 -0.0313316,0.0946706 -0.0473552,0.243655 -0.0473552,0.447628l0 1.0401 -0.572954 0 0 -1.18698c0,-0.210971 -0.0104571,-0.346715 -0.0306159,-0.407986 -0.0201985,-0.0612715 -0.0522458,-0.106519 -0.0947104,-0.136459 -0.0431406,-0.0299399 -0.100953,-0.0452479 -0.174749,-0.0452479 -0.0883884,0 -0.167751,0.0236577 -0.238088,0.0717286 -0.0710129,0.0473154 -0.121827,0.116261 -0.152443,0.206041 -0.0306556,0.0898198 -0.0459636,0.238128 -0.0459636,0.446276l0 1.05263 -0.572954 0 0 -2.16585zm5.1272 1.47664l0.571563 0.0953863c-0.0737962,0.20954 -0.189381,0.368941 -0.348106,0.478244 -0.15801,0.110018 -0.356416,0.164332 -0.594544,0.164332 -0.376615,0 -0.6551,-0.122543 -0.836092,-0.368981 -0.142742,-0.197015 -0.21443,-0.446276 -0.21443,-0.746312 0,-0.35924 0.0939947,-0.640508 0.281944,-0.843805 0.187274,-0.203258 0.424686,-0.304926 0.711521,-0.304926 0.322302,0 0.576413,0.106519 0.763011,0.319558 0.185882,0.213039 0.274986,0.538839 0.267312,0.978157l-1.4362 0c0.00417489,0.169858 0.0500987,0.302143 0.138527,0.396138 0.0884282,0.0946706 0.199122,0.141986 0.330691,0.141986 0.0898198,0 0.165008,-0.0243337 0.226239,-0.0730805 0.0612715,-0.0494228 0.107911,-0.12811 0.138567,-0.236696zm0.0327232 -0.579236c-0.00417489,-0.166399 -0.0466395,-0.292401 -0.12811,-0.378722 -0.08147,-0.0863209 -0.180992,-0.129501 -0.297968,-0.129501 -0.125326,0 -0.228347,0.0459636 -0.309817,0.137175 -0.0814303,0.0904958 -0.121827,0.214391 -0.120436,0.371048l0.85633 0z"/>
  <path class="fil0" d="M28.0188 4.34232c0,0.12807 -0.103816,0.231885 -0.231885,0.231885 -0.12803,0 -0.231846,-0.103816 -0.231846,-0.231885l0 -2.45364 -1.55684 -1.35151 -1.63727 1.42145c-0.0964996,0.0835376 -0.242541,0.0729612 -0.326079,-0.0235384 -0.0834978,-0.0964599 -0.0729214,-0.242502 0.0235384,-0.326039l1.78248 -1.54745c0.0852473,-0.0793229 0.218605,-0.0831798 0.308584,-0.0052882l1.77401 1.54002c0.0576533,0.0422658 0.0953068,0.110615 0.0953068,0.187512l0 2.55849z"/>
  <path class="fil0" d="M23.0091 5.26458c-0.12803,0 -0.231846,-0.103816 -0.231846,-0.231846 0,-0.12807 0.103816,-0.231885 0.231846,-0.231885l0.0113716 0 0 0.000954261c0.206598,-0.000795218 0.409338,-0.024612 0.604882,-0.0689851 0.194868,-0.0442141 0.382062,-0.109024 0.55864,-0.191687 0.908536,-0.4256 1.55099,-1.33032 1.59537,-2.39579 0.00497011,-0.127513 0.112484,-0.226836 0.239997,-0.221866 0.127513,0.00497011 0.226796,0.112523 0.221826,0.239997 -0.0518482,1.2436 -0.80138,2.29941 -1.86156,2.79606 -0.206916,0.0968973 -0.42568,0.172681 -0.652874,0.224212 -0.226518,0.0514108 -0.462936,0.0790446 -0.706272,0.0799194l0 0.0009145 -0.0113716 0z"/>
 </g>
</svg>
