<?xml version="1.0" encoding="UTF-8"?>
<!DOCTYPE svg PUBLIC "-//W3C//DTD SVG 1.1//EN" "http://www.w3.org/Graphics/SVG/1.1/DTD/svg11.dtd">
<!-- Creator: CorelDRAW -->
<svg xmlns="http://www.w3.org/2000/svg" xml:space="preserve" width="70.4682mm" height="13.2406mm" style="shape-rendering:geometricPrecision; text-rendering:geometricPrecision; image-rendering:optimizeQuality; fill-rule:evenodd; clip-rule:evenodd"
viewBox="0 0 131.396 24.6886"
 xmlns:xlink="http://www.w3.org/1999/xlink">
 <defs>
  <style type="text/css">
   <![CDATA[
    .fil0 {fill:#1F1A17;fill-rule:nonzero}
   ]]>
  </style>
 </defs>
 <g id="Layer_x0020_1">
  <metadata id="CorelCorpID_0Corel-Layer"/>
  <path class="fil0" d="M2.68691 4.52691l0 5.15528c0.868537,-1.01211 1.9034,-1.52152 3.10812,-1.52152 0.620357,0 1.17527,0.117657 1.6748,0.346072 0.49636,0.228602 0.871707,0.522465 1.12324,0.878233 0.25135,0.359124 0.424386,0.754236 0.515752,1.1885 0.0947223,0.430912 0.140405,1.10665 0.140405,2.01751l0 5.95837 -2.68691 0 0 -5.36729c0,-1.06432 -0.0522092,-1.74024 -0.153458,-2.02758 -0.104418,-0.28715 -0.283981,-0.512582 -0.542043,-0.682262 -0.257876,-0.169866 -0.581013,-0.254706 -0.969599,-0.254706 -0.447321,0 -0.845602,0.107775 -1.19484,0.326494 -0.352598,0.215549 -0.610661,0.542043 -0.770645,0.979481 -0.163154,0.437438 -0.244824,1.0839 -0.244824,1.93603l0 5.08983 -2.68691 0 0 -14.0224 2.68691 0zm19.1473 14.0224l-2.49429 0 0 -1.49206c-0.41469,0.5812 -0.904524,1.01211 -1.46932,1.29609 -0.564791,0.284167 -1.13275,0.424572 -1.70743,0.424572 -1.16874,0 -2.1678,-0.470255 -3.00035,-1.41039 -0.82938,-0.940324 -1.24724,-2.25283 -1.24724,-3.93415 0,-1.72383 0.404807,-3.03298 1.21461,-3.92762 0.809615,-0.894455 1.83478,-1.34513 3.07214,-1.34513 1.13294,0 2.11559,0.473425 2.94478,1.41692l0 -5.05068 2.68709 0 0 14.0224zm-7.17279 -5.29886c0,1.0839 0.150101,1.8676 0.45049,2.35407 0.430912,0.69867 1.03822,1.05127 1.8152,1.05127 0.620357,0 1.14599,-0.264589 1.58026,-0.790223 0.430912,-0.525634 0.649631,-1.31231 0.649631,-2.35706 0,-1.16557 -0.212193,-2.008 -0.630053,-2.52058 -0.421216,-0.512582 -0.959903,-0.770458 -1.61942,-0.770458 -0.636579,0 -1.16874,0.254706 -1.59984,0.760762 -0.430912,0.506056 -0.646275,1.26346 -0.646275,2.27222zm15.0237 -4.85806l0 2.14188 -1.83478 0 0 4.09394c0,0.82938 0.0162221,1.3125 0.0522092,1.44955 0.0358006,0.137236 0.114301,0.24818 0.238298,0.339546 0.123997,0.0881962 0.277454,0.133879 0.453847,0.133879 0.25135,0 0.610474,-0.0880097 1.0839,-0.257876l0.228415 2.08296c-0.626696,0.267758 -1.33189,0.401638 -2.12529,0.401638 -0.483121,0 -0.920746,-0.08167 -1.30914,-0.241654 -0.388585,-0.16334 -0.672566,-0.375533 -0.855484,-0.633409 -0.182732,-0.257876 -0.306915,-0.607304 -0.378703,-1.04791 -0.0555655,-0.310272 -0.0848399,-0.943681 -0.0848399,-1.8937l0 -4.42696 -1.23419 0 0 -2.14188 1.23419 0 0 -2.02087 2.69679 -1.56702 0 3.58789 1.83478 0zm8.29175 6.9248l2.68038 0.447321c-0.346072,0.982651 -0.888115,1.73017 -1.63247,2.24276 -0.740997,0.515938 -1.67144,0.770645 -2.78816,0.770645 -1.76616,0 -3.07214,-0.574674 -3.92091,-1.73036 -0.669396,-0.923916 -1.00559,-2.09284 -1.00559,-3.49988 0,-1.68468 0.440795,-3.00371 1.3222,-3.95708 0.878233,-0.95319 1.99159,-1.42997 3.33672,-1.42997 1.51146,0 2.70313,0.49953 3.57819,1.49859 0.871707,0.99906 1.28957,2.52692 1.25358,4.58713l-6.73517 0c0.0195784,0.796563 0.234941,1.41692 0.649631,1.85771 0.41469,0.443964 0.933798,0.665853 1.5508,0.665853 0.421216,0 0.773814,-0.114114 1.06096,-0.342716 0.287337,-0.231771 0.506056,-0.600778 0.649818,-1.11zm0.153458 -2.71637c-0.0195784,-0.780341 -0.218719,-1.37124 -0.600778,-1.77604 -0.382059,-0.404807 -0.848772,-0.607304 -1.39734,-0.607304 -0.587726,0 -1.07085,0.215549 -1.45291,0.643291 -0.381873,0.424386 -0.571317,1.0054 -0.564791,1.74006l4.01582 0zm7.41351 -1.11l-2.43891 -0.440795c0.274285,-0.982651 0.744354,-1.70743 1.41375,-2.18085 0.672566,-0.470255 1.6651,-0.708553 2.98394,-0.708553 1.20156,0 2.09284,0.143762 2.68057,0.427742 0.58437,0.283981 0.998873,0.643105 1.23736,1.08073 0.238298,0.437438 0.359124,1.23736 0.359124,2.4061l-0.0294609 3.1374c0,0.891471 0.0425132,1.5508 0.130523,1.97537 0.0850264,0.42103 0.24818,0.878233 0.483308,1.36135l-2.6608 0c-0.0686178,-0.179562 -0.156814,-0.443964 -0.258062,-0.793393 -0.0423267,-0.159984 -0.0749574,-0.264402 -0.0945359,-0.316611 -0.460373,0.447321 -0.950207,0.780341 -1.47248,1.00559 -0.522465,0.221889 -1.08073,0.33302 -1.6748,0.33302 -1.04474,0 -1.87077,-0.284167 -2.47154,-0.848958 -0.603948,-0.567961 -0.904337,-1.28621 -0.904337,-2.15475 0,-0.571317 0.137049,-1.0839 0.411334,-1.53439 0.274285,-0.450677 0.659514,-0.793393 1.15252,-1.03169 0.493004,-0.238298 1.2079,-0.447321 2.13852,-0.626883 1.25358,-0.235128 2.12529,-0.457017 2.60859,-0.659514l0 -0.267758c0,-0.519108 -0.127353,-0.884759 -0.382059,-1.10665 -0.254706,-0.218906 -0.734658,-0.32985 -1.44302,-0.32985 -0.479951,0 -0.852128,0.0947223 -1.11989,0.283981 -0.267758,0.186275 -0.483121,0.515938 -0.649631,0.989364zm3.5946 2.18085c-0.342902,0.114301 -0.888115,0.25135 -1.63582,0.411334 -0.744354,0.159984 -1.23083,0.316798 -1.4626,0.466899 -0.349242,0.25135 -0.525634,0.564791 -0.525634,0.94685 0,0.378703 0.140405,0.70184 0.421216,0.976125 0.280811,0.274285 0.636579,0.411334 1.07085,0.411334 0.486478,0 0.94685,-0.159984 1.38746,-0.476595 0.326494,-0.241654 0.538687,-0.538687 0.639935,-0.891285 0.0717876,-0.228602 0.104605,-0.66604 0.104605,-1.30914l0 -0.535517zm5.63411 -5.27928l2.47807 0 0 1.38429c0.884759,-1.07737 1.94255,-1.61606 3.16686,-1.61606 0.649631,0 1.21442,0.133879 1.69102,0.401638 0.479951,0.267758 0.871707,0.672566 1.17862,1.21442 0.444151,-0.541857 0.927272,-0.946664 1.44302,-1.21442 0.515938,-0.267758 1.06768,-0.401638 1.6554,-0.401638 0.744354,0 1.37776,0.153458 1.89351,0.457203 0.515938,0.300203 0.901167,0.747523 1.15569,1.33189 0.186088,0.434268 0.277641,1.1363 0.277641,2.10589l0 6.4937 -2.68709 0 0 -5.80491c0,-1.00876 -0.091366,-1.65839 -0.277454,-1.95225 -0.24818,-0.382059 -0.630053,-0.574674 -1.14599,-0.574674 -0.378703,0 -0.731301,0.114301 -1.06432,0.346072 -0.329664,0.228602 -0.567961,0.564791 -0.714893,1.00894 -0.146932,0.443964 -0.222075,1.14263 -0.222075,2.09918l0 4.87764 -2.68691 0 0 -5.56643c0,-0.989364 -0.0490393,-1.62594 -0.143575,-1.91328 -0.0947223,-0.287337 -0.24501,-0.49953 -0.444151,-0.639935 -0.202311,-0.140405 -0.473425,-0.212193 -0.819497,-0.212193 -0.414503,0 -0.78668,0.110944 -1.11653,0.336376 -0.33302,0.221889 -0.571317,0.545213 -0.714893,0.966242 -0.143762,0.421216 -0.215549,1.11672 -0.215549,2.09284l0 4.93638 -2.68691 0 0 -10.1569zm18.1645 10.1569l0 -2.68691 2.68691 0 0 2.68691 -2.68691 0zm5.78422 -10.1569l2.47807 0 0 1.38429c0.884759,-1.07737 1.94255,-1.61606 3.16686,-1.61606 0.649631,0 1.21442,0.133879 1.69102,0.401638 0.479951,0.267758 0.871707,0.672566 1.17862,1.21442 0.444151,-0.541857 0.927272,-0.946664 1.44302,-1.21442 0.515938,-0.267758 1.06768,-0.401638 1.6554,-0.401638 0.744354,0 1.37776,0.153458 1.89351,0.457203 0.515938,0.300203 0.901167,0.747523 1.15569,1.33189 0.186088,0.434268 0.277641,1.1363 0.277641,2.10589l0 6.4937 -2.68709 0 0 -5.80491c0,-1.00876 -0.091366,-1.65839 -0.277454,-1.95225 -0.24818,-0.382059 -0.630053,-0.574674 -1.14599,-0.574674 -0.378703,0 -0.731301,0.114301 -1.06432,0.346072 -0.329664,0.228602 -0.567961,0.564791 -0.714893,1.00894 -0.146932,0.443964 -0.222075,1.14263 -0.222075,2.09918l0 4.87764 -2.68691 0 0 -5.56643c0,-0.989364 -0.0490393,-1.62594 -0.143575,-1.91328 -0.0947223,-0.287337 -0.24501,-0.49953 -0.444151,-0.639935 -0.202311,-0.140405 -0.473425,-0.212193 -0.819497,-0.212193 -0.414503,0 -0.78668,0.110944 -1.11653,0.336376 -0.33302,0.221889 -0.571317,0.545213 -0.714893,0.966242 -0.143762,0.421216 -0.215549,1.11672 -0.215549,2.09284l0 4.93638 -2.68691 0 0 -10.1569zm24.0444 6.9248l2.68038 0.447321c-0.346072,0.982651 -0.888115,1.73017 -1.63247,2.24276 -0.740997,0.515938 -1.67144,0.770645 -2.78816,0.770645 -1.76616,0 -3.07214,-0.574674 -3.92091,-1.73036 -0.669396,-0.923916 -1.00559,-2.09284 -1.00559,-3.49988 0,-1.68468 0.440795,-3.00371 1.3222,-3.95708 0.878233,-0.95319 1.99159,-1.42997 3.33672,-1.42997 1.51146,0 2.70313,0.49953 3.57819,1.49859 0.871707,0.99906 1.28957,2.52692 1.25358,4.58713l-6.73517 0c0.0195784,0.796563 0.234941,1.41692 0.649631,1.85771 0.41469,0.443964 0.933798,0.665853 1.5508,0.665853 0.421216,0 0.773814,-0.114114 1.06096,-0.342716 0.287337,-0.231771 0.506056,-0.600778 0.649818,-1.11zm0.153458 -2.71637c-0.0195784,-0.780341 -0.218719,-1.37124 -0.600778,-1.77604 -0.382059,-0.404807 -0.848772,-0.607304 -1.39734,-0.607304 -0.587726,0 -1.07085,0.215549 -1.45291,0.643291 -0.381873,0.424386 -0.571317,1.0054 -0.564791,1.74006l4.01582 0z"/>
  <path class="fil0" d="M131.396 20.3636c0,0.600592 -0.48685,1.08744 -1.08744,1.08744 -0.600405,0 -1.08726,-0.48685 -1.08726,-1.08744l0 -11.5065 -7.30089 -6.33801 -7.6781 6.66599c-0.452542,0.391755 -1.13741,0.342156 -1.52917,-0.110385 -0.391569,-0.452355 -0.34197,-1.13723 0.110385,-1.52898l8.35906 -7.25689c0.399773,-0.37199 1.02516,-0.390077 1.44713,-0.0247994l8.31934 7.22202c0.270369,0.198208 0.446948,0.518735 0.446948,0.879351l0 11.9982z"/>
  <path class="fil0" d="M107.903 24.6886c-0.600405,0 -1.08726,-0.48685 -1.08726,-1.08726 0,-0.600592 0.48685,-1.08744 1.08726,-1.08744l0.0533279 0 0 0.00447507c0.968853,-0.00372923 1.91962,-0.11542 2.83664,-0.32351 0.913847,-0.207345 1.79171,-0.511277 2.61978,-0.89893 4.26064,-1.99588 7.27348,-6.23862 7.48157,-11.2352 0.0233077,-0.597981 0.527499,-1.06376 1.12548,-1.04045 0.597981,0.0233077 1.06358,0.527685 1.04027,1.12548 -0.243146,5.83195 -3.75813,10.7832 -8.72993,13.1123 -0.970345,0.454406 -1.99625,0.809801 -3.06169,1.05146 -1.06227,0.241094 -2.17097,0.370685 -3.31211,0.374787l0 0.00428861 -0.0533279 0z"/>
 </g>
</svg>
