<?xml version="1.0" encoding="UTF-8"?>
<!DOCTYPE svg PUBLIC "-//W3C//DTD SVG 1.1//EN" "http://www.w3.org/Graphics/SVG/1.1/DTD/svg11.dtd">
<!-- Creator: CorelDRAW -->
<svg xmlns="http://www.w3.org/2000/svg" xml:space="preserve" width="59.076mm" height="23.0762mm" style="shape-rendering:geometricPrecision; text-rendering:geometricPrecision; image-rendering:optimizeQuality; fill-rule:evenodd; clip-rule:evenodd"
viewBox="0 0 23.5543 9.20076"
 xmlns:xlink="http://www.w3.org/1999/xlink">
 <defs>
  <style type="text/css">
   <![CDATA[
    .str0 {stroke:#1F1A17;stroke-width:0.0303819}
    .fil2 {fill:none}
    .fil1 {fill:#1F1A17;fill-rule:nonzero}
    .fil0 {fill:#DD137B;fill-rule:nonzero}
   ]]>
  </style>
 </defs>
 <g id="Layer_x0020_1">
  <metadata id="CorelCorpID_0Corel-Layer"/>
  <g id="_103074656">
   <path id="_103074896" class="fil0" d="M2.24407 1.11962l0 0.579409c0.0976048,-0.113753 0.213909,-0.171008 0.349312,-0.171008 0.0697348,0 0.132093,0.0131974 0.188232,0.0389143 0.0557798,0.0256771 0.0980035,0.0586904 0.126232,0.0986813 0.0282687,0.0403896 0.0477259,0.0847662 0.0579728,0.133569 0.0106456,0.0484435 0.015789,0.124398 0.015789,0.226788l0 0.669637 -0.301985 0 0 -0.603252c0,-0.119614 -0.00586107,-0.195568 -0.0172642,-0.227864 -0.0117221,-0.0322957 -0.031897,-0.0576139 -0.0608834,-0.0766724 -0.0289864,-0.0190983 -0.0653091,-0.0286275 -0.109008,-0.0286275 -0.0502377,0 -0.0950131,0.0121209 -0.134286,0.0366815 -0.039632,0.0242417 -0.0686184,0.0609232 -0.0866003,0.110084 -0.0183408,0.0491612 -0.0275111,0.121846 -0.0275111,0.217617l0 0.572032 -0.301985 0 0 -1.57599 0.301985 0z"/>
   <path id="_1030748961" class="fil0" d="M4.39604 2.69561l-0.280335 0 0 -0.167698c-0.0466095,0.0653091 -0.101672,0.113753 -0.165147,0.145689 -0.063475,0.031897 -0.127309,0.047686 -0.1919,0.047686 -0.131376,0 -0.243653,-0.0528294 -0.337231,-0.158488 -0.0931791,-0.105699 -0.140147,-0.253222 -0.140147,-0.442172 0,-0.193734 0.0454931,-0.340899 0.136479,-0.441414 0.091026,-0.100555 0.206254,-0.151192 0.345285,-0.151192 0.127349,0 0.237792,0.0531882 0.331011,0.159246l0 -0.567647 0.301985 0 0 1.57599zm-0.806156 -0.595517c0,0.121807 0.0168655,0.209882 0.0506365,0.264546 0.0484037,0.0785064 0.116663,0.118138 0.204021,0.118138 0.0696949,0 0.128784,-0.0297041 0.177586,-0.0887932 0.0484435,-0.0590892 0.0730042,-0.147484 0.0730042,-0.264904 0,-0.131017 -0.023843,-0.225671 -0.0708113,-0.283285 -0.0473271,-0.0576139 -0.107892,-0.0866003 -0.182012,-0.0866003 -0.071529,0 -0.131336,0.0286275 -0.179779,0.0854839 -0.0484435,0.0568962 -0.0726454,0.142021 -0.0726454,0.255415z"/>
   <path id="_10307489612" class="fil0" d="M5.27839 1.55406l0 0.240742 -0.206214 0 0 0.460114c0,0.0932189 0.00183408,0.147524 0.00586107,0.162914 0.00402699,0.0154302 0.0128385,0.0279099 0.0267935,0.0381568 0.0139549,0.00992794 0.0311793,0.0150713 0.0509953,0.0150713 0.0282687,0 0.0686184,-0.00992794 0.121846,-0.0289864l0.0256771 0.234084c-0.0704525,0.0301028 -0.149716,0.0451342 -0.238869,0.0451342 -0.0543046,0 -0.103506,-0.00917038 -0.147165,-0.0271523 -0.043659,-0.0183408 -0.0755958,-0.0421838 -0.0961295,-0.0711701 -0.0205337,-0.0289864 -0.0344886,-0.0682595 -0.0425825,-0.11778 -0.00621991,-0.0348873 -0.00952922,-0.106057 -0.00952922,-0.212833l0 -0.497553 -0.138712 0 0 -0.240742 0.138712 0 0 -0.227107 0.303101 -0.176151 0 0.403258 0.206214 0z"/>
   <path id="_103074896123" class="fil0" d="M6.2103 2.33235l0.301267 0.0502776c-0.0389143,0.110443 -0.0997977,0.194452 -0.183487,0.252066 -0.083291,0.0579728 -0.187873,0.0866003 -0.313348,0.0866003 -0.198519,0 -0.345285,-0.0645914 -0.440697,-0.194452 -0.075237,-0.103865 -0.112995,-0.23524 -0.112995,-0.39337 0,-0.189348 0.0495201,-0.33759 0.1486,-0.444724 0.0986813,-0.107134 0.223837,-0.160721 0.374989,-0.160721 0.169891,0 0.303819,0.0561387 0.402181,0.168416 0.0979636,0.112277 0.144932,0.284003 0.140905,0.515535l-0.756995 0c0.00219292,0.0895508 0.0264346,0.159286 0.0730042,0.208806 0.0466095,0.0499188 0.104941,0.0748383 0.174317,0.0748383 0.0473271,0 0.0869591,-0.0128385 0.119255,-0.0385156 0.0322957,-0.0260359 0.0568564,-0.067502 0.0730042,-0.124757zm0.0172642 -0.305294c-0.00223279,-0.0876768 -0.0246005,-0.154102 -0.0675419,-0.199595 -0.0429014,-0.0454931 -0.095372,-0.0682595 -0.157053,-0.0682595 -0.0660268,0 -0.120331,0.0242018 -0.163273,0.0722865 -0.0429413,0.047686 -0.0641927,0.112995 -0.063475,0.195568l0.451342 0z"/>
   <path id="_1030748961234" class="fil0" d="M7.06072 1.9023l-0.274075 -0.0495201c0.0308205,-0.110443 0.0836498,-0.1919 0.158887,-0.245128 0.075556,-0.0528294 0.187116,-0.0796228 0.335357,-0.0796228 0.135044,0 0.2352,0.0161478 0.301267,0.0480847 0.0656679,0.031897 0.112277,0.0722865 0.139071,0.121448 0.0267935,0.0491612 0.0403497,0.139071 0.0403497,0.270407l-0.00330931 0.352661c0,0.100157 0.00478455,0.174277 0.0146726,0.221963 0.00956909,0.047367 0.0279099,0.0987212 0.0543046,0.153026l-0.299034 0c-0.00769515,-0.0201748 -0.0176231,-0.0499188 -0.0289864,-0.0891521 -0.00478455,-0.0179819 -0.0084527,-0.0297439 -0.0106456,-0.035605 -0.0517529,0.0502776 -0.106775,0.0876768 -0.165505,0.113035 -0.0586904,0.0249195 -0.121448,0.0373992 -0.188232,0.0373992 -0.117421,0 -0.210241,-0.031897 -0.277743,-0.0954118 -0.0679007,-0.0638338 -0.101672,-0.144573 -0.101672,-0.242178 0,-0.0641927 0.0154302,-0.121807 0.0462506,-0.172443 0.0308205,-0.0506365 0.0741206,-0.0891521 0.129542,-0.115946 0.0553811,-0.0267935 0.135762,-0.0502776 0.240344,-0.0704525 0.140905,-0.0264346 0.238869,-0.051394 0.293173,-0.0741206l0 -0.0301028c0,-0.0583316 -0.0143138,-0.0994388 -0.0429413,-0.124398 -0.0286275,-0.0245607 -0.0825733,-0.0370404 -0.162196,-0.0370404 -0.0539059,0 -0.0957707,0.0106456 -0.125834,0.0319369 -0.0301028,0.0208925 -0.0543046,0.0579728 -0.0730441,0.111161zm0.404015 0.245128c-0.0385156,0.0128385 -0.0997977,0.0282288 -0.183846,0.0462108 -0.0836498,0.0179819 -0.138313,0.035605 -0.164389,0.0524705 -0.0392732,0.0282687 -0.0590493,0.063475 -0.0590493,0.106416 0,0.0425825 0.0157491,0.0789052 0.0473271,0.109726 0.0315381,0.0308205 0.071529,0.0462108 0.120331,0.0462108 0.0547033,0 0.106416,-0.0179421 0.155976,-0.0535471 0.0366815,-0.0271523 0.0605245,-0.0605644 0.0718878,-0.100196 0.00809386,-0.0256771 0.011762,-0.0748383 0.011762,-0.147125l0 -0.0601657z"/>
   <path id="_10307489612345" class="fil0" d="M8.09793 1.55406l0.278501 0 0 0.155617c0.0994388,-0.121089 0.218335,-0.181653 0.35593,-0.181653 0.0730042,0 0.136479,0.0150315 0.190066,0.0451342 0.0539458,0.0301028 0.0979636,0.0755958 0.132452,0.136519 0.0499188,-0.0609232 0.104223,-0.106416 0.162196,-0.136519 0.0579728,-0.0301028 0.119973,-0.0451342 0.186039,-0.0451342 0.0836498,0 0.15486,0.0172642 0.212833,0.0513541 0.0579728,0.0337709 0.101273,0.0840485 0.1299,0.149716 0.0208925,0.0488024 0.0311793,0.127708 0.0311793,0.236676l0 0.729843 -0.301985 0 0 -0.652413c0,-0.113394 -0.0102868,-0.186398 -0.0311793,-0.219411 -0.0279099,-0.0429413 -0.0708512,-0.0645914 -0.128824,-0.0645914 -0.0425426,0 -0.0821746,0.0128385 -0.119614,0.0388744 -0.0370404,0.0257169 -0.0638338,0.0635149 -0.0803405,0.113394 -0.0165466,0.0499188 -0.0249594,0.128425 -0.0249594,0.235958l0 0.548189 -0.301985 0 0 -0.625619c0,-0.111201 -0.00550223,-0.18273 -0.0161478,-0.215026 -0.0106456,-0.0322957 -0.0275111,-0.0561387 -0.0499188,-0.0719277 -0.0227266,-0.015789 -0.0531882,-0.023843 -0.0921025,-0.023843 -0.0466095,0 -0.0884344,0.0124797 -0.125475,0.0377979 -0.0374391,0.0249594 -0.0642325,0.0612821 -0.0803804,0.108609 -0.0161478,0.0473271 -0.0242018,0.125475 -0.0242018,0.2352l0 0.554808 -0.301985 0 0 -1.14155z"/>
   <polygon id="_103074896123456" class="fil0" points="10.1394,2.69561 10.1394,2.39363 10.4414,2.39363 10.4414,2.69561 "/>
   <path id="_1030748961234567" class="fil0" d="M10.7895 1.55406l0.278501 0 0 0.155617c0.0994388,-0.121089 0.218335,-0.181653 0.35593,-0.181653 0.0730042,0 0.136479,0.0150315 0.190066,0.0451342 0.0539458,0.0301028 0.0979636,0.0755958 0.132452,0.136519 0.0499188,-0.0609232 0.104223,-0.106416 0.162196,-0.136519 0.0579728,-0.0301028 0.119973,-0.0451342 0.186039,-0.0451342 0.0836498,0 0.15486,0.0172642 0.212833,0.0513541 0.0579728,0.0337709 0.101273,0.0840485 0.1299,0.149716 0.0208925,0.0488024 0.0311793,0.127708 0.0311793,0.236676l0 0.729843 -0.301985 0 0 -0.652413c0,-0.113394 -0.0102868,-0.186398 -0.0311793,-0.219411 -0.0279099,-0.0429413 -0.0708512,-0.0645914 -0.128824,-0.0645914 -0.0425426,0 -0.0821746,0.0128385 -0.119614,0.0388744 -0.0370404,0.0257169 -0.0638338,0.0635149 -0.0803405,0.113394 -0.0165466,0.0499188 -0.0249594,0.128425 -0.0249594,0.235958l0 0.548189 -0.301985 0 0 -0.625619c0,-0.111201 -0.00550223,-0.18273 -0.0161478,-0.215026 -0.0106456,-0.0322957 -0.0275111,-0.0561387 -0.0499188,-0.0719277 -0.0227266,-0.015789 -0.0531882,-0.023843 -0.0921025,-0.023843 -0.0466095,0 -0.0884344,0.0124797 -0.125475,0.0377979 -0.0374391,0.0249594 -0.0642325,0.0612821 -0.0803804,0.108609 -0.0161478,0.0473271 -0.0242018,0.125475 -0.0242018,0.2352l0 0.554808 -0.301985 0 0 -1.14155z"/>
   <path id="_10307489612345678" class="fil0" d="M13.4919 2.33235l0.301267 0.0502776c-0.0389143,0.110443 -0.0997977,0.194452 -0.183487,0.252066 -0.083291,0.0579728 -0.187873,0.0866003 -0.313348,0.0866003 -0.198519,0 -0.345285,-0.0645914 -0.440697,-0.194452 -0.075237,-0.103865 -0.112995,-0.23524 -0.112995,-0.39337 0,-0.189348 0.0495201,-0.33759 0.1486,-0.444724 0.0986813,-0.107134 0.223837,-0.160721 0.374989,-0.160721 0.169891,0 0.303819,0.0561387 0.402181,0.168416 0.0979636,0.112277 0.144932,0.284003 0.140905,0.515535l-0.756995 0c0.00219292,0.0895508 0.0264346,0.159286 0.0730042,0.208806 0.0466095,0.0499188 0.104941,0.0748383 0.174317,0.0748383 0.0473271,0 0.0869591,-0.0128385 0.119255,-0.0385156 0.0322957,-0.0260359 0.0568564,-0.067502 0.0730042,-0.124757zm0.0172642 -0.305294c-0.00223279,-0.0876768 -0.0246005,-0.154102 -0.0675419,-0.199595 -0.0429014,-0.0454931 -0.095372,-0.0682595 -0.157053,-0.0682595 -0.0660268,0 -0.120331,0.0242018 -0.163273,0.0722865 -0.0429413,0.047686 -0.0641927,0.112995 -0.063475,0.195568l0.451342 0z"/>
   <path id="_103074944" class="fil0" d="M16.7095 2.89956c0,0.067502 -0.0547033,0.122205 -0.122205,0.122205 -0.067502,0 -0.122205,-0.0547033 -0.122205,-0.122205l0 -1.29322 -0.82055 -0.712339 -0.862973 0.74918c-0.0508358,0.0440178 -0.127827,0.0384757 -0.171845,-0.0124 -0.0440178,-0.0508358 -0.0384359,-0.127827 0.0124,-0.171845l0.939486 -0.815606c0.0449349,-0.0418249 0.115228,-0.0438583 0.162635,-0.00279099l0.93506 0.811698c0.030342,0.0222481 0.0501979,0.0582917 0.0501979,0.0988408l0 1.34848z"/>
   <path id="_103075496" class="fil0" d="M14.0691 3.38567c-0.0674621,0 -0.122205,-0.0547432 -0.122205,-0.122205 0,-0.067502 0.0547432,-0.122205 0.122205,-0.122205l0.00602056 0 0 0.000478455c0.108888,-0.000398712 0.215743,-0.0129581 0.31881,-0.0363626 0.102668,-0.0232848 0.20135,-0.0574544 0.294409,-0.101034 0.478853,-0.224316 0.81748,-0.701175 0.840884,-1.26276 0.0026315,-0.067183 0.0592885,-0.119534 0.126511,-0.116902 0.067183,0.0026315 0.119534,0.0592885 0.116902,0.126472 -0.0273517,0.655483 -0.422396,1.21197 -0.981151,1.47372 -0.109088,0.051075 -0.224395,0.091026 -0.344129,0.118178 -0.119374,0.0271124 -0.244012,0.0416654 -0.372238,0.042104l0 0.000518326 -0.00602056 0z"/>
   <path id="_103075088" class="fil1" d="M12.8772 4.53754l-0.0140347 0.107892 -0.0153903 -0.005263c-0.0703727,-0.0243214 -0.12392,-0.0363626 -0.160761,-0.0363626 -0.076473,0 -0.138951,0.0241221 -0.187355,0.0725258 -0.0484037,0.0484037 -0.0725258,0.110882 -0.0725258,0.187355 0,0.0738415 0.0231253,0.133648 0.0693759,0.179261 0.04645,0.0457722 0.106576,0.0685785 0.180417,0.0685785 0.014872,0 0.0393529,-0.00530287 0.0735225,-0.0160282l0.0155498 -0.00478455 0 -0.175633 -0.12687 0 0 -0.0973257 0.255096 0 0 0.355213c-0.051075,0.0168655 -0.0930196,0.0284282 -0.125913,0.0348873 -0.0328938,0.00641927 -0.0645914,0.00972858 -0.0953321,0.00972858 -0.115507,0 -0.207849,-0.0300629 -0.276906,-0.0900292 -0.0725258,-0.0632756 -0.108888,-0.15167 -0.108888,-0.265184 0,-0.116304 0.0373593,-0.206533 0.111879,-0.270646 0.0705322,-0.0606043 0.165027,-0.091026 0.283165,-0.091026 0.0257568,0 0.071529,0.00777489 0.137476,0.0232848l0.0574943 0.0135562z"/>
   <polygon id="_1030750881" class="fil1" points="13.0612,4.51574 13.4813,4.51574 13.4813,4.61454 13.1967,4.61454 13.1967,4.79695 13.4663,4.79695 13.4663,4.89806 13.1967,4.89806 13.1967,5.09945 13.4916,5.09945 13.4916,5.20355 13.0612,5.20355 "/>
   <polygon id="_10307508812" class="fil1" points="14.0064,4.51574 14.1418,4.51574 14.1418,5.09849 14.4178,5.09849 14.4178,5.20355 14.0064,5.20355 "/>
   <path id="_103075088123" class="fil1" d="M14.7804 4.60281c-0.0629567,0 -0.11136,0.0279099 -0.145251,0.0837694 -0.0280693,0.0464101 -0.042104,0.103426 -0.042104,0.170848 0,0.0680602 0.0138752,0.125395 0.0416256,0.171805 0.0335317,0.0561786 0.0820949,0.0842878 0.145729,0.0842878 0.0631162,0 0.111679,-0.0281092 0.14553,-0.0842878 0.0284282,-0.0467291 0.0426223,-0.104064 0.0426223,-0.171805 0,-0.0677412 -0.0141942,-0.124917 -0.0426223,-0.171327 -0.0335317,-0.0555406 -0.0820949,-0.083291 -0.14553,-0.083291zm0 -0.10211c0.104742,0 0.186199,0.03405 0.244331,0.10211 0.0545438,0.0642724 0.0818158,0.149677 0.0818158,0.256571 0,0.107413 -0.0271124,0.192977 -0.0812974,0.256611 -0.0578531,0.0677412 -0.13947,0.101592 -0.244849,0.101592 -0.105579,0 -0.187036,-0.0338507 -0.24453,-0.101592 -0.053866,-0.0636345 -0.080819,-0.149198 -0.080819,-0.256611 0,-0.107373 0.0269529,-0.193136 0.080819,-0.25705 0.0574943,-0.0677412 0.138951,-0.101632 0.24453,-0.101632z"/>
   <path id="_1030750881234" class="fil1" d="M15.8073 4.53754l-0.0140347 0.107892 -0.0153903 -0.005263c-0.0703727,-0.0243214 -0.12392,-0.0363626 -0.160761,-0.0363626 -0.076473,0 -0.138951,0.0241221 -0.187355,0.0725258 -0.0484037,0.0484037 -0.0725258,0.110882 -0.0725258,0.187355 0,0.0738415 0.0231253,0.133648 0.0693759,0.179261 0.04645,0.0457722 0.106576,0.0685785 0.180417,0.0685785 0.014872,0 0.0393529,-0.00530287 0.0735225,-0.0160282l0.0155498 -0.00478455 0 -0.175633 -0.12687 0 0 -0.0973257 0.255096 0 0 0.355213c-0.051075,0.0168655 -0.0930196,0.0284282 -0.125913,0.0348873 -0.0328938,0.00641927 -0.0645914,0.00972858 -0.0953321,0.00972858 -0.115507,0 -0.207849,-0.0300629 -0.276906,-0.0900292 -0.0725258,-0.0632756 -0.108888,-0.15167 -0.108888,-0.265184 0,-0.116304 0.0373593,-0.206533 0.111879,-0.270646 0.0705322,-0.0606043 0.165027,-0.091026 0.283165,-0.091026 0.0257568,0 0.071529,0.00777489 0.137476,0.0232848l0.0574943 0.0135562z"/>
   <polygon id="_10307508812345" class="fil1" points="15.9916,4.51574 16.127,4.51574 16.127,5.20355 15.9916,5.20355 "/>
   <path id="_103075088123456" class="fil1" d="M16.6967 4.5336l-0.0115627 0.108051c-0.051075,-0.0232848 -0.101791,-0.0348873 -0.152188,-0.0348873 -0.0771508,0 -0.115627,0.0254777 -0.115627,0.0765129 0,0.0302224 0.036841,0.063794 0.110523,0.100635l0.0163472 0.00825334c0.0568564,0.0284282 0.0978041,0.0551818 0.122923,0.0803006 0.036841,0.036522 0.0551818,0.0801412 0.0551818,0.130698 0,0.069057 -0.0274314,0.123401 -0.0822942,0.163233 -0.0490416,0.0355253 -0.109367,0.0531882 -0.181055,0.0531882 -0.0409876,0 -0.0953321,-0.0115627 -0.163073,-0.0348475l-0.0183408 -0.00629965 0.0125594 -0.11762c0.0728447,0.0351664 0.129183,0.0527098 0.168855,0.0527098 0.0315381,0 0.0588101,-0.00693759 0.0817759,-0.0208527 0.0274314,-0.0163472 0.0411471,-0.039313 0.0411471,-0.0686981 0,-0.0335716 -0.036841,-0.0702132 -0.110364,-0.110204l-0.0115627 -0.00645914 -0.0140745 -0.00725656c-0.0528692,-0.0274314 -0.0911855,-0.053866 -0.115148,-0.0793039 -0.032216,-0.0345285 -0.0484037,-0.0761939 -0.0484037,-0.124917 0,-0.0645914 0.0267536,-0.11451 0.0803006,-0.149677 0.0462506,-0.0302623 0.103266,-0.0454532 0.171486,-0.0454532 0.0299034,0 0.0732036,0.00793437 0.129701,0.0238031l0.0328938 0.00909064z"/>
   <polygon id="_1030750881234567" class="fil1" points="16.8361,4.51574 17.3164,4.51574 17.3164,4.62825 16.9644,5.09945 17.3201,5.09945 17.3201,5.20355 16.8255,5.20355 16.8255,5.08442 17.1745,4.61785 16.8361,4.61785 "/>
   <polygon id="_10307508812345678" class="fil1" points="17.3785,4.51574 17.8789,4.51574 17.8789,4.62183 17.6955,4.62183 17.6955,5.20355 17.5595,5.20355 17.5595,4.62183 17.3785,4.62183 "/>
   <polygon id="_103075088123456789" class="fil1" points="17.98,4.51574 18.1155,4.51574 18.1155,5.20355 17.98,5.20355 "/>
   <polygon id="_10307508812345678910" class="fil1" points="18.284,4.51574 18.4195,4.51574 18.4195,4.81577 18.6726,4.51574 18.828,4.51574 18.5445,4.83447 18.8546,5.20355 18.6833,5.20355 18.4195,4.87442 18.4195,5.20355 18.284,5.20355 "/>
   <path id="_1030750881234567891011" class="fil1" d="M19.1908 4.63056l-0.115666 0.309281 0.226867 0 -0.111201 -0.309281zm-0.0794634 -0.114829l0.163552 0 0.265861 0.687819 -0.146248 0 -0.0571355 -0.162595 -0.299553 0 -0.0596474 0.162595 -0.134486 0 0.267656 -0.687819z"/>
   <polygon id="_103075088123456789101112" class="fil1" points="19.9815,4.51574 20.117,4.51574 20.117,4.81577 20.3701,4.51574 20.5255,4.51574 20.242,4.83447 20.5521,5.20355 20.3808,5.20355 20.117,4.87442 20.117,5.20355 19.9815,5.20355 "/>
   <polygon id="_10307508812345678910111213" class="fil1" points="20.6225,4.51574 21.0228,4.51574 21.0228,4.61585 20.759,4.61585 20.759,4.80321 21.0113,4.80321 21.0113,4.90436 20.759,4.90436 20.759,5.20355 20.6225,5.20355 "/>
   <polygon id="_1030750881234567891011121314" class="fil1" points="21.0988,4.51574 21.5992,4.51574 21.5992,4.62183 21.4159,4.62183 21.4159,5.20355 21.2799,5.20355 21.2799,4.62183 21.0988,4.62183 "/>
   <polygon id="_103075088123456789101112131415" class="fil1" points="21.5884,5.07485 21.7171,5.07485 21.7171,5.20355 21.5884,5.20355 "/>
   <polygon id="_103074608" class="fil1" points="2.14643,5.9586 2.22573,5.9586 2.22573,6.64641 2.13566,6.64641 2.13566,6.0617 2.02151,6.15951 1.97211,6.09707 "/>
   <polygon id="_1030746081" class="fil1" points="2.72986,5.9586 2.80917,5.9586 2.80917,6.64641 2.7191,6.64641 2.7191,6.0617 2.60495,6.15951 2.55555,6.09707 "/>
   <polygon id="_10307460812" class="fil1" points="3.3133,5.9586 3.3926,5.9586 3.3926,6.64641 3.30253,6.64641 3.30253,6.0617 3.18838,6.15951 3.13898,6.09707 "/>
   <path id="_103074608123" class="fil1" d="M3.91639 6.28426c-0.0409876,0 -0.0733631,0.0156694 -0.0973257,0.0469284 -0.0216501,0.0283883 -0.0323754,0.0637541 -0.0323754,0.106057 0,0.0409876 0.0115627,0.0753167 0.0348475,0.103107 0.0247999,0.0290661 0.0574943,0.0436191 0.0978041,0.0436191 0.0406687,0 0.0732036,-0.0147125 0.097844,-0.0441374 0.0229658,-0.0274314 0.034369,-0.0619599 0.034369,-0.103585 0,-0.0440976 -0.0112437,-0.0799817 -0.0338905,-0.107373 -0.0242816,-0.0297439 -0.0579728,-0.0446159 -0.101273,-0.0446159zm0.202386 -0.313109l-0.00677811 0.0803006c-0.0381568,-0.0183408 -0.0784666,-0.0275909 -0.121089,-0.0275909 -0.069057,0 -0.122285,0.0238031 -0.159764,0.07121 -0.0379973,0.0484037 -0.0570159,0.116464 -0.0570159,0.20422 0.0363626,-0.0593284 0.0911855,-0.0890723 0.16407,-0.0890723 0.0616409,0 0.11152,0.0198559 0.149836,0.0594879 0.0381966,0.0398314 0.0573348,0.0905476 0.0573348,0.152507 0,0.0677412 -0.020135,0.12376 -0.0604448,0.168017 -0.0416654,0.0454532 -0.0960099,0.0682197 -0.163273,0.0682197 -0.0857231,0 -0.148999,-0.0340102 -0.189667,-0.10207 -0.0328539,-0.0555406 -0.0494004,-0.129223 -0.0494004,-0.221245 0,-0.110683 0.0214906,-0.199436 0.0644319,-0.26618 0.0509156,-0.0797823 0.128545,-0.119614 0.232808,-0.119614 0.0470879,0 0.0933385,0.00725656 0.138951,0.0218096z"/>
   <polygon id="_1030746081234" class="fil1" points="4.29477,6.54036 4.39688,6.54036 4.39688,6.64641 4.29477,6.64641 "/>
   <path id="_10307460812345" class="fil1" d="M5.03877 6.32736l0 0.240583 0.0730441 0c0.112995,0 0.169493,-0.0406687 0.169493,-0.121926 0,-0.0791444 -0.0523509,-0.118657 -0.157292,-0.118657l-0.0852447 0zm0 -0.293731l0 0.219212 0.0702132 0c0.0427818,0 0.0776691,-0.00773502 0.104423,-0.0232848 0.0328938,-0.0189787 0.0494004,-0.0485632 0.0494004,-0.088554 0,-0.071529 -0.0482442,-0.107373 -0.144733,-0.107373l-0.0793039 0zm-0.0953321 -0.0750376l0.184404 0c0.0660666,0 0.119454,0.012081 0.159764,0.0363626 0.0494004,0.0295844 0.074001,0.0753167 0.074001,0.136958 0,0.0786659 -0.0423034,0.129542 -0.126711,0.152507 0.0976446,0.0238031 0.146527,0.0804601 0.146527,0.169851 0,0.0673824 -0.0264346,0.11778 -0.0793039,0.150992 -0.0436191,0.0274314 -0.101432,0.0411471 -0.17332,0.0411471l-0.185361 0 0 -0.687819z"/>
   <path id="_103074608123456" class="fil1" d="M5.5222 5.9586l0.0958504 0 0 0.405132c0,0.144214 0.054185,0.216421 0.162555,0.216421 0.111679,0 0.167539,-0.0749978 0.167539,-0.225033l0 -0.396519 0.0895508 0 0 0.398353c0,0.201748 -0.0865604,0.302503 -0.259881,0.302503 -0.17037,0 -0.255614,-0.0976446 -0.255614,-0.292774l0 -0.408082z"/>
   <path id="_1030746081234567" class="fil1" d="M6.32238 6.03559l0 0.530527 0.0784666 0c0.085444,0 0.152188,-0.0231253 0.200273,-0.0693759 0.0480448,-0.04645 0.0721669,-0.112198 0.0721669,-0.197283 0,-0.175952 -0.0905077,-0.263868 -0.271603,-0.263868l-0.0793039 0zm-0.0963289 -0.0769913l0.160761 0c0.258405,0 0.387588,0.115148 0.387588,0.345644 0,0.115148 -0.0370005,0.202227 -0.110842,0.261396 -0.0674222,0.053866 -0.160282,0.0807791 -0.27874,0.0807791l-0.158767 0 0 -0.687819z"/>
   <path id="_10307460812345678" class="fil1" d="M7.17032 6.0432l-0.136479 0.349591 0.268293 0 -0.131814 -0.349591zm-0.0568564 -0.0846067l0.117142 0 0.269649 0.687819 -0.104104 0 -0.0664255 -0.17663 -0.326944 0 -0.0664255 0.17663 -0.0973257 0 0.274434 -0.687819z"/>
   <path id="_103074608123456789" class="fil1" d="M7.68534 6.03363l0 0.25705 0.0624383 0c0.105579,0 0.158289,-0.0437786 0.158289,-0.131176 0,-0.0419445 -0.0138752,-0.0738415 -0.0416256,-0.0958106 -0.0254378,-0.0200154 -0.0598068,-0.0300629 -0.103107,-0.0300629l-0.0759946 0zm-0.0963289 -0.0750376l0.171327 0c0.163911,0 0.245846,0.0677412 0.245846,0.203383 0,0.0695753 -0.0251189,0.122285 -0.0754762,0.15781 -0.043978,0.0305414 -0.10231,0.0459317 -0.175154,0.0459317l-0.0702132 0 0 0.280693 -0.0963289 0 0 -0.687819z"/>
   <polygon id="_10307460812345678910" class="fil1" points="8.12847,5.9586 8.50122,5.9586 8.50122,6.03264 8.2248,6.03264 8.2248,6.25089 8.48615,6.25089 8.48615,6.32836 8.2248,6.32836 8.2248,6.56711 8.51047,6.56711 8.51047,6.64641 8.12847,6.64641 "/>
   <path id="_1030746081234567891011" class="fil1" d="M9.02812 5.97662l-0.00972858 0.0840884c-0.0309002,-0.0151909 -0.0642724,-0.02476 -0.100157,-0.0289066 -0.0107254,-0.00131575 -0.022607,-0.00199356 -0.0358442,-0.00199356 -0.0348475,0 -0.0639136,0.00578133 -0.0872382,0.017344 -0.0302224,0.0152308 -0.0454133,0.0385156 -0.0454133,0.0697348 0,0.0280693 0.0150315,0.0540255 0.0450944,0.0779881 0.0125594,0.0102469 0.0394725,0.0267536 0.0807791,0.0494004 0.0558596,0.0305812 0.0960099,0.0574943 0.12061,0.0807791 0.0393529,0.0373593 0.0590094,0.0794634 0.0590094,0.126232 0,0.0616409 -0.0233247,0.111041 -0.0697348,0.148201 -0.0429413,0.0345285 -0.0960099,0.051713 -0.159286,0.051713 -0.0667444,0 -0.125554,-0.0102469 -0.17659,-0.0305414l0.00972858 -0.0923816c0.056657,0.0290661 0.110045,0.0436191 0.159605,0.0436191 0.0358442,0 0.0659071,-0.00741605 0.0900292,-0.022288 0.029425,-0.017344 0.0441374,-0.0429812 0.0441374,-0.0765129 0,-0.0460911 -0.0482442,-0.0966479 -0.144733,-0.151511 -0.0138752,-0.00757553 -0.0261157,-0.0147125 -0.036841,-0.0212912 -0.0788254,-0.0467689 -0.118138,-0.104104 -0.118138,-0.172164 0,-0.0591689 0.0242816,-0.104104 0.0726852,-0.135163 0.0409876,-0.0264346 0.0927006,-0.039632 0.155298,-0.039632 0.0507162,0 0.0996382,0.00773502 0.146726,0.0232848z"/>
   <polygon id="_103074608123456789101112" class="fil1" points="9.13123,5.9586 9.61335,5.9586 9.61335,6.0389 9.42069,6.0389 9.42069,6.64641 9.32389,6.64641 9.32389,6.0389 9.13123,6.0389 "/>
   <polygon id="_10307460812345678910111213" class="fil1" points="9.6413,6.54135 9.74158,6.54135 9.66012,6.76934 9.57982,6.76934 "/>
   <polygon id="_1030746081234567891011121314" class="fil1" points="10.2721,5.9586 10.3684,5.9586 10.3684,6.25005 10.6807,6.25005 10.6807,5.9586 10.777,5.9586 10.777,6.64641 10.6807,6.64641 10.6807,6.32852 10.3684,6.32852 10.3684,6.64641 10.2721,6.64641 "/>
   <path id="_103074608123456789101112131415" class="fil1" d="M10.956 5.9586l0.0958504 0 0 0.405132c0,0.144214 0.054185,0.216421 0.162555,0.216421 0.111679,0 0.167539,-0.0749978 0.167539,-0.225033l0 -0.396519 0.0895508 0 0 0.398353c0,0.201748 -0.0865604,0.302503 -0.259881,0.302503 -0.17037,0 -0.255614,-0.0976446 -0.255614,-0.292774l0 -0.408082z"/>
   <path id="_10307460812345678910111213141516" class="fil1" d="M11.6598 5.9586l0.121129 0 0.314066 0.571155c0.00510352,0.0119215 0.0114032,0.0305812 0.0188192,0.0561786l-0.00956909 -0.0677412c-0.00231253,-0.0158289 -0.0034688,-0.0333722 -0.0034688,-0.0523509l0 -0.507242 0.088554 0 0 0.687819 -0.118138 0 -0.304497 -0.540096c-0.0061003,-0.0107652 -0.0107254,-0.0214906 -0.0140347,-0.0325748l-0.0183408 -0.0599663 0.0102469 0.0852447 0.00330931 0.0429812 0 0.504411 -0.0880755 0 0 -0.687819z"/>
   <polygon id="_1030746081234567891011121314151617" class="fil1" points="12.2721,5.9586 12.3855,5.9586 12.5757,6.28442 12.7698,5.9586 12.8747,5.9586 12.6211,6.36173 12.6211,6.64641 12.5238,6.64641 12.5238,6.36373 "/>
   <path id="_103074608123456789101112131415161718" class="fil1" d="M13.1501 6.0432l-0.136479 0.349591 0.268293 0 -0.131814 -0.349591zm-0.0568564 -0.0846067l0.117142 0 0.269649 0.687819 -0.104104 0 -0.0664255 -0.17663 -0.326944 0 -0.0664255 0.17663 -0.0973257 0 0.274434 -0.687819z"/>
   <path id="_10307460812345678910111213141516171819" class="fil1" d="M13.6651 6.03559l0 0.530527 0.0784666 0c0.085444,0 0.152188,-0.0231253 0.200273,-0.0693759 0.0480448,-0.04645 0.0721669,-0.112198 0.0721669,-0.197283 0,-0.175952 -0.0905077,-0.263868 -0.271603,-0.263868l-0.0793039 0zm-0.0963289 -0.0769913l0.160761 0c0.258405,0 0.387588,0.115148 0.387588,0.345644 0,0.115148 -0.0370005,0.202227 -0.110842,0.261396 -0.0674222,0.053866 -0.160282,0.0807791 -0.27874,0.0807791l-0.158767 0 0 -0.687819z"/>
   <polygon id="_1030746081234567891011121314151617181920" class="fil1" points="14.2631,5.9586 14.3594,5.9586 14.3594,6.64641 14.2631,6.64641 "/>
   <path id="_103074608123456789101112131415161718192021" class="fil1" d="M14.9872 5.9586l0.0973257 0 0 0.456845c0,0.15777 -0.0601258,0.236755 -0.180577,0.236755 -0.0304217,0 -0.0584911,-0.00330931 -0.0842878,-0.00972858l0 -0.0851251c0.0213311,0.00777489 0.0414661,0.0116025 0.0604847,0.0116025 0.0439381,0 0.0742004,-0.0193375 0.0905476,-0.0581721 0.0110443,-0.0257967 0.0165067,-0.0644319 0.0165067,-0.116145l0 -0.436032z"/>
   <path id="_10307460812345678910111213141516171819202122" class="fil1" d="M15.5188 6.0432l-0.136479 0.349591 0.268293 0 -0.131814 -0.349591zm-0.0568564 -0.0846067l0.117142 0 0.269649 0.687819 -0.104104 0 -0.0664255 -0.17663 -0.326944 0 -0.0664255 0.17663 -0.0973257 0 0.274434 -0.687819zm0.0950131 -0.239068l0.0908665 0 -0.137954 0.171845 -0.0522313 0 0.0993192 -0.171845z"/>
   <path id="_1030746081234567891011121314151617181920212223" class="fil1" d="M15.9375 5.9586l0.121129 0 0.314066 0.571155c0.00510352,0.0119215 0.0114032,0.0305812 0.0188192,0.0561786l-0.00956909 -0.0677412c-0.00231253,-0.0158289 -0.0034688,-0.0333722 -0.0034688,-0.0523509l0 -0.507242 0.088554 0 0 0.687819 -0.118138 0 -0.304497 -0.540096c-0.0061003,-0.0107652 -0.0107254,-0.0214906 -0.0140347,-0.0325748l-0.0183408 -0.0599663 0.0102469 0.0852447 0.00330931 0.0429812 0 0.504411 -0.0880755 0 0 -0.687819z"/>
   <path id="_103074608123456789101112131415161718192021222324" class="fil1" d="M16.9285 6.02203c-0.0713695,0 -0.126073,0.0301028 -0.16407,0.0900691 -0.032216,0.0507162 -0.0484037,0.113673 -0.0484037,0.189189 0,0.0756357 0.0161877,0.138592 0.0484037,0.189309 0.0379973,0.0596474 0.0927006,0.0895508 0.16407,0.0895508 0.0710505,0 0.125714,-0.0299034 0.16407,-0.0895508 0.0325349,-0.0510352 0.0488821,-0.113992 0.0488821,-0.189309 0,-0.0755161 -0.0163472,-0.138473 -0.0488821,-0.189189 -0.0379973,-0.0599663 -0.0927006,-0.0900691 -0.16407,-0.0900691zm0 -0.076473c0.101791,0 0.180258,0.0348475 0.235759,0.104582 0.051075,0.0637541 0.0765129,0.147882 0.0765129,0.252106 0,0.110722 -0.0277504,0.197961 -0.0834505,0.261555 -0.0556602,0.063794 -0.132014,0.0956511 -0.228821,0.0956511 -0.101592,0 -0.180258,-0.0348475 -0.236117,-0.104582 -0.0510352,-0.0637541 -0.076473,-0.148042 -0.076473,-0.252624 0,-0.104223 0.0254378,-0.188352 0.076473,-0.252106 0.0558596,-0.0697348 0.134526,-0.104582 0.236117,-0.104582z"/>
   <path id="_10307460812345678910111213141516171819202122232425" class="fil1" d="M17.7462 5.97662l-0.00972858 0.0840884c-0.0309002,-0.0151909 -0.0642724,-0.02476 -0.100157,-0.0289066 -0.0107254,-0.00131575 -0.022607,-0.00199356 -0.0358442,-0.00199356 -0.0348475,0 -0.0639136,0.00578133 -0.0872382,0.017344 -0.0302224,0.0152308 -0.0454133,0.0385156 -0.0454133,0.0697348 0,0.0280693 0.0150315,0.0540255 0.0450944,0.0779881 0.0125594,0.0102469 0.0394725,0.0267536 0.0807791,0.0494004 0.0558596,0.0305812 0.0960099,0.0574943 0.12061,0.0807791 0.0393529,0.0373593 0.0590094,0.0794634 0.0590094,0.126232 0,0.0616409 -0.0233247,0.111041 -0.0697348,0.148201 -0.0429413,0.0345285 -0.0960099,0.051713 -0.159286,0.051713 -0.0667444,0 -0.125554,-0.0102469 -0.17659,-0.0305414l0.00972858 -0.0923816c0.056657,0.0290661 0.110045,0.0436191 0.159605,0.0436191 0.0358442,0 0.0659071,-0.00741605 0.0900292,-0.022288 0.029425,-0.017344 0.0441374,-0.0429812 0.0441374,-0.0765129 0,-0.0460911 -0.0482442,-0.0966479 -0.144733,-0.151511 -0.0138752,-0.00757553 -0.0261157,-0.0147125 -0.036841,-0.0212912 -0.0788254,-0.0467689 -0.118138,-0.104104 -0.118138,-0.172164 0,-0.0591689 0.0242816,-0.104104 0.0726852,-0.135163 0.0409876,-0.0264346 0.0927006,-0.039632 0.155298,-0.039632 0.0507162,0 0.0996382,0.00773502 0.146726,0.0232848z"/>
   <path id="_1030746081234567891011121314151617181920212223242526" class="fil1" d="M18.276 5.9586l0.0958504 0 0 0.405132c0,0.144214 0.054185,0.216421 0.162555,0.216421 0.111679,0 0.167539,-0.0749978 0.167539,-0.225033l0 -0.396519 0.0895508 0 0 0.398353c0,0.201748 -0.0865604,0.302503 -0.259881,0.302503 -0.17037,0 -0.255614,-0.0976446 -0.255614,-0.292774l0 -0.408082zm0.294768 -0.239068l0.0908665 0 -0.137954 0.171845 -0.0522313 0 0.0993192 -0.171845z"/>
   <polygon id="_103074608123456789101112131415161718192021222324252627" class="fil1" points="18.9033,5.9586 19.3855,5.9586 19.3855,6.0389 19.1928,6.0389 19.1928,6.64641 19.096,6.64641 19.096,6.0389 18.9033,6.0389 "/>
   <polygon id="_10307460812345678910111213141516171819202122232425262728" class="fil1" points="20.0409,5.9586 20.1202,5.9586 20.1202,6.64641 20.0301,6.64641 20.0301,6.0617 19.916,6.15951 19.8666,6.09707 "/>
   <path id="_1030746081234567891011121314151617181920212223242526272829" class="fil1" d="M20.644 6.28426c-0.0409876,0 -0.0733631,0.0156694 -0.0973257,0.0469284 -0.0216501,0.0283883 -0.0323754,0.0637541 -0.0323754,0.106057 0,0.0409876 0.0115627,0.0753167 0.0348475,0.103107 0.0247999,0.0290661 0.0574943,0.0436191 0.0978041,0.0436191 0.0406687,0 0.0732036,-0.0147125 0.097844,-0.0441374 0.0229658,-0.0274314 0.034369,-0.0619599 0.034369,-0.103585 0,-0.0440976 -0.0112437,-0.0799817 -0.0338905,-0.107373 -0.0242816,-0.0297439 -0.0579728,-0.0446159 -0.101273,-0.0446159zm0.202386 -0.313109l-0.00677811 0.0803006c-0.0381568,-0.0183408 -0.0784666,-0.0275909 -0.121089,-0.0275909 -0.069057,0 -0.122285,0.0238031 -0.159764,0.07121 -0.0379973,0.0484037 -0.0570159,0.116464 -0.0570159,0.20422 0.0363626,-0.0593284 0.0911855,-0.0890723 0.16407,-0.0890723 0.0616409,0 0.11152,0.0198559 0.149836,0.0594879 0.0381966,0.0398314 0.0573348,0.0905476 0.0573348,0.152507 0,0.0677412 -0.020135,0.12376 -0.0604448,0.168017 -0.0416654,0.0454532 -0.0960099,0.0682197 -0.163273,0.0682197 -0.0857231,0 -0.148999,-0.0340102 -0.189667,-0.10207 -0.0328539,-0.0555406 -0.0494004,-0.129223 -0.0494004,-0.221245 0,-0.110683 0.0214906,-0.199436 0.0644319,-0.26618 0.0509156,-0.0797823 0.128545,-0.119614 0.232808,-0.119614 0.0470879,0 0.0933385,0.00725656 0.138951,0.0218096z"/>
   <path id="_103074608123456789101112131415161718192021222324252627282930" class="fil1" d="M21.1045 6.56795l0.314743 0 0 0.0784666 -0.429413 0 0 -0.0803006c0.0923418,-0.091345 0.154979,-0.156455 0.187873,-0.195608 0.0842479,-0.0993192 0.126392,-0.17663 0.126392,-0.231811 0,-0.0345285 -0.0129183,-0.0618004 -0.0386751,-0.0817759 -0.0239626,-0.0180218 -0.0537065,-0.0271124 -0.0892318,-0.0271124 -0.0251189,0 -0.0510352,0.00414661 -0.0779881,0.0125594 -0.0267536,0.00841283 -0.052032,0.0208128 -0.0759946,0.0371999l-0.0105659 -0.0883945c0.0639534,-0.029106 0.127867,-0.0436191 0.192139,-0.0436191 0.0565374,0 0.102948,0.0168257 0.13947,0.0503574 0.037479,0.0345684 0.0561786,0.0798222 0.0561786,0.136001 0,0.0525503 -0.0214906,0.111001 -0.0644319,0.175633 -0.0434596,0.0654287 -0.120291,0.15167 -0.230496,0.258405z"/>
   <polygon id="_10307460812345678910111213141516171819202122232425262728293031" class="fil1" points="21.6058,6.54036 21.7079,6.54036 21.7079,6.64641 21.6058,6.64641 "/>
   <path id="_1030746081234567891011121314151617181920212223242526272829303132" class="fil1" d="M12.5088 7.47785l-0.136479 0.349591 0.268293 0 -0.131814 -0.349591zm-0.0568564 -0.0846067l0.117142 0 0.269649 0.687819 -0.104104 0 -0.0664255 -0.17663 -0.326944 0 -0.0664255 0.17663 -0.0973257 0 0.274434 -0.687819z"/>
   <path id="_103074608123456789101112131415161718192021222324252627282930313233" class="fil1" d="M13.2824 7.41126l-0.00972858 0.0840884c-0.0309002,-0.0151909 -0.0642724,-0.02476 -0.100157,-0.0289066 -0.0107254,-0.00131575 -0.022607,-0.00199356 -0.0358442,-0.00199356 -0.0348475,0 -0.0639136,0.00578133 -0.0872382,0.017344 -0.0302224,0.0152308 -0.0454133,0.0385156 -0.0454133,0.0697348 0,0.0280693 0.0150315,0.0540255 0.0450944,0.0779881 0.0125594,0.0102469 0.0394725,0.0267536 0.0807791,0.0494004 0.0558596,0.0305812 0.0960099,0.0574943 0.12061,0.0807791 0.0393529,0.0373593 0.0590094,0.0794634 0.0590094,0.126232 0,0.0616409 -0.0233247,0.111041 -0.0697348,0.148201 -0.0429413,0.0345285 -0.0960099,0.051713 -0.159286,0.051713 -0.0667444,0 -0.125554,-0.0102469 -0.17659,-0.0305414l0.00972858 -0.0923816c0.056657,0.0290661 0.110045,0.0436191 0.159605,0.0436191 0.0358442,0 0.0659071,-0.00741605 0.0900292,-0.022288 0.029425,-0.017344 0.0441374,-0.0429812 0.0441374,-0.0765129 0,-0.0460911 -0.0482442,-0.0966479 -0.144733,-0.151511 -0.0138752,-0.00757553 -0.0261157,-0.0147125 -0.036841,-0.0212912 -0.0788254,-0.0467689 -0.118138,-0.104104 -0.118138,-0.172164 0,-0.0591689 0.0242816,-0.104104 0.0726852,-0.135163 0.0409876,-0.0264346 0.0927006,-0.039632 0.155298,-0.039632 0.0507162,0 0.0996382,0.00773502 0.146726,0.0232848z"/>
   <polygon id="_10307460812345678910111213141516171819202122232425262728293031323334" class="fil1" points="13.4196,7.39324 13.866,7.39324 13.866,7.47817 13.5087,8.00176 13.8718,8.00176 13.8718,8.08106 13.409,8.08106 13.409,7.99103 13.7639,7.47023 13.4196,7.47023 "/>
   <path id="_1030746081234567891011121314151617181920212223242526272829303132333435" class="fil1" d="M14.0149 7.975l0.10211 0 0 0.106057 -0.10211 0 0 -0.106057zm0 -0.395403l0.10211 0 0 0.106935 -0.10211 0 0 -0.106935z"/>
   <path id="_103074608123456789101112131415161718192021222324252627282930313233343536" class="fil1" d="M14.7518 8.00259l0.314743 0 0 0.0784666 -0.429413 0 0 -0.0803006c0.0923418,-0.091345 0.154979,-0.156455 0.187873,-0.195608 0.0842479,-0.0993192 0.126392,-0.17663 0.126392,-0.231811 0,-0.0345285 -0.0129183,-0.0618004 -0.0386751,-0.0817759 -0.0239626,-0.0180218 -0.0537065,-0.0271124 -0.0892318,-0.0271124 -0.0251189,0 -0.0510352,0.00414661 -0.0779881,0.0125594 -0.0267536,0.00841283 -0.052032,0.0208128 -0.0759946,0.0371999l-0.0105659 -0.0883945c0.0639534,-0.029106 0.127867,-0.0436191 0.192139,-0.0436191 0.0565374,0 0.102948,0.0168257 0.13947,0.0503574 0.037479,0.0345684 0.0561786,0.0798222 0.0561786,0.136001 0,0.0525503 -0.0214906,0.111001 -0.0644319,0.175633 -0.0434596,0.0654287 -0.120291,0.15167 -0.230496,0.258405z"/>
   <path id="_10307460812345678910111213141516171819202122232425262728293031323334353637" class="fil1" d="M15.5166 7.47753l-0.248836 0.373554 0.247002 0 0.00183408 -0.373554zm-0.0275909 -0.0842878l0.115826 0 0 0.457841 0.100117 0 0 0.0755161 -0.100117 0 0 0.154461 -0.0900691 0 0 -0.154461 -0.326306 0 0 -0.0885939 0.300549 -0.444764z"/>
   <path id="_1030746081234567891011121314151617181920212223242526272829303132333435363738" class="fil1" d="M16.03 7.45273c-0.0913849,0 -0.136958,0.0943353 -0.136958,0.283205 0,0.188511 0.0459317,0.282687 0.137954,0.282687 0.0903482,0 0.135482,-0.0935379 0.135482,-0.280733 0,-0.190146 -0.0454532,-0.285159 -0.136479,-0.285159zm0 -0.0725258c0.0870788,0 0.150354,0.0401503 0.189667,0.120451 0.029425,0.0601258 0.0440976,0.138792 0.0440976,0.236237 0,0.0984819 -0.0145131,0.177467 -0.0436191,0.237114 -0.0389941,0.0801412 -0.102429,0.120092 -0.190146,0.120092 -0.076154,0 -0.134326,-0.0303819 -0.174317,-0.0911855 -0.0399908,-0.0608036 -0.0599663,-0.149517 -0.0599663,-0.266021 0,-0.0981231 0.0147125,-0.176949 0.0440976,-0.236596 0.0393529,-0.0801013 0.102788,-0.120092 0.190186,-0.120092z"/>
   <path id="_103074608123456789101112131415161718192021222324252627282930313233343536373839" class="fil1" d="M16.625 7.71891c-0.0409876,0 -0.0733631,0.0156694 -0.0973257,0.0469284 -0.0216501,0.0283883 -0.0323754,0.0637541 -0.0323754,0.106057 0,0.0409876 0.0115627,0.0753167 0.0348475,0.103107 0.0247999,0.0290661 0.0574943,0.0436191 0.0978041,0.0436191 0.0406687,0 0.0732036,-0.0147125 0.097844,-0.0441374 0.0229658,-0.0274314 0.034369,-0.0619599 0.034369,-0.103585 0,-0.0440976 -0.0112437,-0.0799817 -0.0338905,-0.107373 -0.0242816,-0.0297439 -0.0579728,-0.0446159 -0.101273,-0.0446159zm0.202386 -0.313109l-0.00677811 0.0803006c-0.0381568,-0.0183408 -0.0784666,-0.0275909 -0.121089,-0.0275909 -0.069057,0 -0.122285,0.0238031 -0.159764,0.07121 -0.0379973,0.0484037 -0.0570159,0.116464 -0.0570159,0.20422 0.0363626,-0.0593284 0.0911855,-0.0890723 0.16407,-0.0890723 0.0616409,0 0.11152,0.0198559 0.149836,0.0594879 0.0381966,0.0398314 0.0573348,0.0905476 0.0573348,0.152507 0,0.0677412 -0.020135,0.12376 -0.0604448,0.168017 -0.0416654,0.0454532 -0.0960099,0.0682197 -0.163273,0.0682197 -0.0857231,0 -0.148999,-0.0340102 -0.189667,-0.10207 -0.0328539,-0.0555406 -0.0494004,-0.129223 -0.0494004,-0.221245 0,-0.110683 0.0214906,-0.199436 0.0644319,-0.26618 0.0509156,-0.0797823 0.128545,-0.119614 0.232808,-0.119614 0.0470879,0 0.0933385,0.00725656 0.138951,0.0218096z"/>
   <polygon id="_10307460812345678910111213141516171819202122232425262728293031323334353637383940" class="fil1" points="16.9681,7.39324 17.4042,7.39324 17.4042,7.47753 17.1404,8.08106 17.0343,8.08106 17.3059,7.46924 16.9681,7.46924 "/>
   <path id="_1030746081234567891011121314151617181920212223242526272829303132333435363738394041" class="fil1" d="M17.7803 7.45273c-0.0913849,0 -0.136958,0.0943353 -0.136958,0.283205 0,0.188511 0.0459317,0.282687 0.137954,0.282687 0.0903482,0 0.135482,-0.0935379 0.135482,-0.280733 0,-0.190146 -0.0454532,-0.285159 -0.136479,-0.285159zm0 -0.0725258c0.0870788,0 0.150354,0.0401503 0.189667,0.120451 0.029425,0.0601258 0.0440976,0.138792 0.0440976,0.236237 0,0.0984819 -0.0145131,0.177467 -0.0436191,0.237114 -0.0389941,0.0801412 -0.102429,0.120092 -0.190146,0.120092 -0.076154,0 -0.134326,-0.0303819 -0.174317,-0.0911855 -0.0399908,-0.0608036 -0.0599663,-0.149517 -0.0599663,-0.266021 0,-0.0981231 0.0147125,-0.176949 0.0440976,-0.236596 0.0393529,-0.0801013 0.102788,-0.120092 0.190186,-0.120092z"/>
   <path id="_103074608123456789101112131415161718192021222324252627282930313233343536373839404142" class="fil1" d="M18.2524 8.00259l0.314743 0 0 0.0784666 -0.429413 0 0 -0.0803006c0.0923418,-0.091345 0.154979,-0.156455 0.187873,-0.195608 0.0842479,-0.0993192 0.126392,-0.17663 0.126392,-0.231811 0,-0.0345285 -0.0129183,-0.0618004 -0.0386751,-0.0817759 -0.0239626,-0.0180218 -0.0537065,-0.0271124 -0.0892318,-0.0271124 -0.0251189,0 -0.0510352,0.00414661 -0.0779881,0.0125594 -0.0267536,0.00841283 -0.052032,0.0208128 -0.0759946,0.0371999l-0.0105659 -0.0883945c0.0639534,-0.029106 0.127867,-0.0436191 0.192139,-0.0436191 0.0565374,0 0.102948,0.0168257 0.13947,0.0503574 0.037479,0.0345684 0.0561786,0.0798222 0.0561786,0.136001 0,0.0525503 -0.0214906,0.111001 -0.0644319,0.175633 -0.0434596,0.0654287 -0.120291,0.15167 -0.230496,0.258405z"/>
   <path id="_10307460812345678910111213141516171819202122232425262728293031323334353637383940414243" class="fil1" d="M19.0779 7.59946c0,-0.0406687 -0.0112437,-0.0745193 -0.0338905,-0.101632 -0.0239626,-0.0287472 -0.0558596,-0.0431008 -0.0958106,-0.0431008 -0.0388346,0 -0.0710505,0.0145131 -0.0966479,0.0437786 -0.0256372,0.0292256 -0.0385156,0.0664255 -0.0385156,0.111679 0,0.0409876 0.0114032,0.0748383 0.034369,0.101632 0.0242816,0.0280693 0.0564975,0.042104 0.0968073,0.042104 0.0426223,0 0.0759946,-0.0153504 0.100316,-0.0459317 0.022288,-0.0284282 0.0333722,-0.0645914 0.0333722,-0.108529zm-0.332127 0.46757l0.00677811 -0.0803006c0.0200154,0.00992794 0.0389941,0.017025 0.0571753,0.0212912 0.0196565,0.00446558 0.0409876,0.00677811 0.0639534,0.00677811 0.103745,0 0.171327,-0.0525104 0.202227,-0.15777 0.0100874,-0.0338905 0.0150315,-0.0728447 0.0150315,-0.116823 -0.0375188,0.0594879 -0.0923418,0.0892318 -0.164549,0.0892318 -0.0609631,0 -0.110722,-0.0199755 -0.149358,-0.0599663 -0.0385156,-0.0401503 -0.0578531,-0.090707 -0.0578531,-0.152029 0,-0.0675419 0.0203343,-0.123401 0.0609631,-0.168017 0.0419844,-0.0460911 0.0963289,-0.0692164 0.163273,-0.0692164 0.0857231,0 0.148999,0.034369 0.189667,0.103107 0.0325349,0.0555007 0.0488821,0.129502 0.0488821,0.222202 0,0.110364 -0.0216501,0.198758 -0.0649104,0.265184 -0.0512345,0.0788254 -0.129063,0.118138 -0.233287,0.118138 -0.04645,0 -0.0923816,-0.00729643 -0.137994,-0.0218096z"/>
   <polygon id="_1030746081234567891011121314151617181920212223242526272829303132333435363738394041424344" class="fil1" points="19.2894,7.77178 19.5373,7.77178 19.5373,7.84726 19.2894,7.84726 "/>
   <path id="_103074608123456789101112131415161718192021222324252627282930313233343536373839404142434445" class="fil1" d="M19.7684 8.00259l0.314743 0 0 0.0784666 -0.429413 0 0 -0.0803006c0.0923418,-0.091345 0.154979,-0.156455 0.187873,-0.195608 0.0842479,-0.0993192 0.126392,-0.17663 0.126392,-0.231811 0,-0.0345285 -0.0129183,-0.0618004 -0.0386751,-0.0817759 -0.0239626,-0.0180218 -0.0537065,-0.0271124 -0.0892318,-0.0271124 -0.0251189,0 -0.0510352,0.00414661 -0.0779881,0.0125594 -0.0267536,0.00841283 -0.052032,0.0208128 -0.0759946,0.0371999l-0.0105659 -0.0883945c0.0639534,-0.029106 0.127867,-0.0436191 0.192139,-0.0436191 0.0565374,0 0.102948,0.0168257 0.13947,0.0503574 0.037479,0.0345684 0.0561786,0.0798222 0.0561786,0.136001 0,0.0525503 -0.0214906,0.111001 -0.0644319,0.175633 -0.0434596,0.0654287 -0.120291,0.15167 -0.230496,0.258405z"/>
   <polygon id="_10307460812345678910111213141516171819202122232425262728293031323334353637383940414243444546" class="fil1" points="20.222,7.77178 20.4698,7.77178 20.4698,7.84726 20.222,7.84726 "/>
   <path id="_1030746081234567891011121314151617181920212223242526272829303132333435363738394041424344454647" class="fil1" d="M20.8824 7.47753l-0.248836 0.373554 0.247002 0 0.00183408 -0.373554zm-0.0275909 -0.0842878l0.115826 0 0 0.457841 0.100117 0 0 0.0755161 -0.100117 0 0 0.154461 -0.0900691 0 0 -0.154461 -0.326306 0 0 -0.0885939 0.300549 -0.444764z"/>
   <path id="_103074608123456789101112131415161718192021222324252627282930313233343536373839404142434445464748" class="fil1" d="M21.4482 7.72039c0.0447754,0.00741605 0.0804601,0.0246005 0.106895,0.051394 0.0281092,0.0283883 0.0421439,0.0647509 0.0421439,0.108888 0,0.0686981 -0.0285877,0.121567 -0.0857231,0.158767 -0.048603,0.0315381 -0.109407,0.0474069 -0.181932,0.0474069 -0.0670634,0 -0.124398,-0.00893115 -0.171805,-0.0265941l0.0110443 -0.0890723c0.0449349,0.0242816 0.0935379,0.0363626 0.145729,0.0363626 0.0475664,0 0.088235,-0.0102469 0.122086,-0.0305812 0.0403098,-0.0241221 0.0604847,-0.0584911 0.0604847,-0.103067 0,-0.0399908 -0.017663,-0.0698943 -0.0531882,-0.0895508 -0.0281092,-0.0158687 -0.0639534,-0.0238031 -0.107573,-0.0238031l-0.0735225 0 0 -0.0749978 0.0755161 0c0.0406288,0 0.0751573,-0.00829322 0.103585,-0.0246404 0.0348475,-0.0199755 0.0521914,-0.0488821 0.0521914,-0.0865604 0,-0.0362031 -0.0165067,-0.0644319 -0.0494004,-0.0847662 -0.0277504,-0.0166662 -0.0609631,-0.0251189 -0.0995983,-0.0251189 -0.0466095,0 -0.0963289,0.0112437 -0.149557,0.0338905l-0.00494403 -0.0812974c0.0632756,-0.0193375 0.121129,-0.0290661 0.17332,-0.0290661 0.0619599,0 0.113354,0.0137157 0.154302,0.0411072 0.0477657,0.031897 0.0717283,0.0775097 0.0717283,0.136479 0,0.0403098 -0.0140347,0.0745193 -0.0421439,0.102629 -0.02476,0.02476 -0.0579728,0.0422635 -0.0996382,0.0521914z"/>
   <rect id="_103075472" class="fil2 str0" x="0.0151518" y="0.015191" width="23.524" height="9.17038"/>
  </g>
 </g>
</svg>
