<?xml version="1.0" encoding="UTF-8"?>
<!DOCTYPE svg PUBLIC "-//W3C//DTD SVG 1.1//EN" "http://www.w3.org/Graphics/SVG/1.1/DTD/svg11.dtd">
<!-- Creator: CorelDRAW -->
<svg xmlns="http://www.w3.org/2000/svg" xml:space="preserve" width="40mm" height="40mm" style="shape-rendering:geometricPrecision; text-rendering:geometricPrecision; image-rendering:optimizeQuality; fill-rule:evenodd; clip-rule:evenodd"
viewBox="0 0 29.8103 29.8103"
 xmlns:xlink="http://www.w3.org/1999/xlink">
 <defs>
  <style type="text/css">
   <![CDATA[
    .fil2 {fill:none}
    .fil0 {fill:#1F1A17;fill-rule:nonzero}
    .fil1 {fill:#DD137B;fill-rule:nonzero}
   ]]>
  </style>
 </defs>
 <g id="Layer_x0020_1">
  <metadata id="CorelCorpID_0Corel-Layer"/>
  <g id="_37811168">
   <g>
    <path id="_102849184" class="fil0" d="M17.5734 13.0196l0 2.50183 0.297954 0c0.20733,0 0.390365,-0.0275 0.549105,-0.0824999 0.155088,-0.053733 0.288563,-0.134221 0.400352,-0.241314l-0.000149051 -0.000149051 7.45256e-005 -0.000149051c0.00208672,-0.00208672 0.00417344,-0.00402438 0.00633468,-0.00588753 0.0289905,-0.0283943 0.0563414,-0.0585772 0.0819037,-0.0906232 0.0266057,-0.033313 0.0511991,-0.0687126 0.0737804,-0.10605 0.117378,-0.19399 0.176253,-0.437838 0.176253,-0.731395 0,-0.42025 -0.105081,-0.732438 -0.315243,-0.936489 -0.211206,-0.205169 -0.533902,-0.307642 -0.968163,-0.307642l0 0.000372628 -0.302201 0zm-0.593895 -0.597696l0.820229 0 0 0.000372628c0.685412,0 1.20247,0.15546 1.55125,0.466381 0.352506,0.314349 0.528759,0.780656 0.528759,1.39914 0,0.307269 -0.0500067,0.578543 -0.149871,0.813969 -0.100982,0.23796 -0.252418,0.437689 -0.454159,0.599261 -0.00201219,0.00156504 -0.00402438,0.00305555 -0.0061111,0.00447154 -0.18147,0.14376 -0.395731,0.25145 -0.642858,0.323069 -0.247053,0.0716191 -0.526077,0.107466 -0.837147,0.107466l-0.810094 0c-0.056565,0 -0.102398,-0.0459078 -0.102398,-0.102473l0 -3.50926c0,-0.056565 0.0458333,-0.102398 0.102398,-0.102398z"/>
    <path id="_102849112" class="fil0" d="M13.3431 12.4219l0.491422 0c0.056565,0 0.102473,0.0458333 0.102473,0.102398l0 1.38454 1.38826 0 0 -1.38454c0,-0.056565 0.0459078,-0.102398 0.102473,-0.102398l0.491422 0c0.056565,0 0.102473,0.0458333 0.102473,0.102398l0 3.50926c0,0.056565 -0.0459078,0.102473 -0.102473,0.102473l-0.491422 0c-0.056565,0 -0.102473,-0.0459078 -0.102473,-0.102473l0 -1.51935 -1.38826 0 0 1.51935c0,0.056565 -0.0459078,0.102473 -0.102473,0.102473l-0.491422 0c-0.056565,0 -0.102473,-0.0459078 -0.102473,-0.102473l0 -3.50926c0,-0.056565 0.0459078,-0.102398 0.102473,-0.102398z"/>
    <path id="_102849040" class="fil0" d="M19.949 12.4222l2.45085 0c0.0564159,0 0.1021,0.0456842 0.1021,0.102026l0.000372628 0 0 0.409742c0,0.056565 -0.0459078,0.102398 -0.102473,0.102398l-0.880446 0 0 2.99712c0,0.056565 -0.0458333,0.102473 -0.102398,0.102473l-0.49403 0c-0.056565,0 -0.102398,-0.0459078 -0.102398,-0.102473l0 -2.99712 -0.880446 0c-0.056565,0 -0.102473,-0.0458333 -0.102473,-0.102398l0 -0.409742c0,-0.056565 0.0459078,-0.102398 0.102473,-0.102398 0.00298103,0 0.00588753,0.000149051 0.00886855,0.000372628z"/>
   </g>
   <g>
    <path id="_102848944" class="fil1" d="M3.49056 18.4865c0,0.253015 -0.205244,0.458184 -0.458258,0.458184 -0.253015,0 -0.458258,-0.205169 -0.458258,-0.458184l0 -5.07661c0,-0.138469 0.0613346,-0.262479 0.158442,-0.346544l-0.000223577 -0.000298103 3.54921 -3.08104c0.174614,-0.151063 0.430684,-0.14689 0.60008,7.45256e-005l7.45256e-005 -7.45256e-005 3.54891 3.08104c0.191531,0.165745 0.212398,0.455426 0.0467276,0.646883 -0.165671,0.191531 -0.455352,0.212398 -0.646883,0.0467276l-3.2488 -2.82057 -3.09103 2.68322 0 4.8672z"/>
    <path id="_102848872" class="fil1" d="M12.5126 19.3963c0.254058,0 0.460047,0.205989 0.460047,0.460047 0,0.254058 -0.205989,0.459972 -0.460047,0.459972l-0.00700541 0 0 -0.00178862c-0.482554,-0.00052168 -0.952214,-0.0541056 -1.40287,-0.155237 -0.455501,-0.102249 -0.889836,-0.251002 -1.29727,-0.440745 -2.1099,-0.98277 -3.60279,-3.08171 -3.70601,-5.55551 -0.00991191,-0.253015 0.187283,-0.466307 0.440298,-0.476219 0.253015,-0.00991191 0.466307,0.187208 0.476219,0.440223 0.0883129,2.1175 1.36837,3.91506 3.17762,4.75779 0.355115,0.165447 0.727072,0.293557 1.11036,0.379559 0.388055,0.0871205 0.790419,0.133252 1.20165,0.133699l0 -0.00178862 0.00700541 0z"/>
   </g>
   <path id="_102848728" class="fil0" d="M13.538 17.0915l0 0.435006c0.0732587,-0.0854064 0.160603,-0.128408 0.262256,-0.128408 0.052317,0 0.0991936,0.00991191 0.141301,0.0292141 0.0418834,0.0193021 0.0735568,0.0440447 0.0947966,0.0740785 0.0211653,0.0303319 0.0357723,0.0636449 0.043523,0.100312 0.00797424,0.0363685 0.0118496,0.0933806 0.0118496,0.170217l0 0.50275 -0.226707 0 0 -0.452892c0,-0.0898034 -0.00439701,-0.146816 -0.0129675,-0.171036 -0.00879403,-0.0242208 -0.0239973,-0.0432994 -0.0457587,-0.0576083 -0.0217615,-0.0143089 -0.0490379,-0.0214634 -0.0817546,-0.0214634 -0.0377845,0 -0.0713956,0.00909213 -0.100833,0.0275745 -0.0298103,0.0181843 -0.0515717,0.0456842 -0.0650609,0.0825744 -0.0137127,0.0369647 -0.0206436,0.0915175 -0.0206436,0.16336l0 0.429491 -0.226707 0 0 -1.18317 0.226707 0z"/>
   <path id="_1028487281" class="fil0" d="M15.1535 18.2747l-0.21046 0 0 -0.125874c-0.0350271,0.0490379 -0.0763143,0.0854064 -0.124011,0.109329 -0.0476219,0.0239973 -0.0955419,0.0358468 -0.144058,0.0358468 -0.0985974,0 -0.182886,-0.0397222 -0.253164,-0.119017 -0.0699796,-0.0793698 -0.10523,-0.190115 -0.10523,-0.331937 0,-0.145474 0.0342073,-0.255921 0.102473,-0.331416 0.06834,-0.0754945 0.154864,-0.113503 0.259275,-0.113503 0.0955419,0 0.178489,0.0399457 0.248468,0.119539l0 -0.426138 0.226707 0 0 1.18317zm-0.605223 -0.447079c0,0.091443 0.0126694,0.157547 0.0380081,0.198611 0.0363685,0.0589498 0.0875676,0.0886855 0.15315,0.0886855 0.052317,0 0.0967343,-0.0222832 0.133326,-0.0666259 0.0363685,-0.0443428 0.0548509,-0.110745 0.0548509,-0.198909 0,-0.0983739 -0.0178862,-0.169397 -0.0532113,-0.212696 -0.0354742,-0.0432249 -0.0809348,-0.0649864 -0.136606,-0.0649864 -0.053733,0 -0.0985974,0.0214634 -0.134966,0.0641666 -0.0363685,0.0427032 -0.0545528,0.106646 -0.0545528,0.191754z"/>
   <path id="_10284872812" class="fil0" d="M15.8159 17.4177l0 0.180725 -0.15479 0 0 0.345426c0,0.0699796 0.00134146,0.110745 0.00439701,0.122297 0.00305555,0.0115515 0.00961381,0.0209417 0.0201219,0.0286178 0.0104336,0.00745256 0.0234011,0.0113279 0.0383062,0.0113279 0.0211653,0 0.0514972,-0.00745256 0.091443,-0.0217615l0.0192276 0.175731c-0.0528387,0.0225813 -0.112385,0.0339092 -0.179309,0.0339092 -0.0407655,0 -0.0776557,-0.00693088 -0.110447,-0.02042 -0.0327913,-0.0137872 -0.0567885,-0.0316734 -0.0722153,-0.0534349 -0.0154268,-0.0217615 -0.0258604,-0.0511991 -0.031897,-0.0883874 -0.00469512,-0.026233 -0.00715446,-0.0796679 -0.00715446,-0.159783l0 -0.373523 -0.104187 0 0 -0.180725 0.104187 0 0 -0.170515 0.227527 -0.132283 0 0.302798 0.15479 0z"/>
   <path id="_102848728123" class="fil0" d="M16.5155 18.002l0.226185 0.03771c-0.0292141,0.082947 -0.0748983,0.145996 -0.137723,0.189221 -0.062527,0.043523 -0.141077,0.0650609 -0.235277,0.0650609 -0.149051,0 -0.2592,-0.0485162 -0.330819,-0.145996 -0.0564904,-0.0779538 -0.0848847,-0.176626 -0.0848847,-0.295345 0,-0.14212 0.0371883,-0.253387 0.111565,-0.333875 0.074153,-0.0804132 0.168055,-0.120657 0.281558,-0.120657 0.127513,0 0.228123,0.0421815 0.301903,0.12647 0.0735568,0.0842885 0.108807,0.213218 0.105826,0.387012l-0.568333 0c0.00163956,0.0672221 0.0198238,0.119539 0.0548509,0.156727 0.0349525,0.0374864 0.0787736,0.0561923 0.130793,0.0561923 0.0355487,0 0.0652845,-0.00961381 0.0895798,-0.0289159 0.0242208,-0.0195257 0.0427032,-0.0506774 0.0547763,-0.0936042zm0.0129675 -0.229241c-0.00163956,-0.0658061 -0.0184824,-0.115664 -0.0506774,-0.149871 -0.0322696,-0.0341327 -0.0716191,-0.0511991 -0.1179,-0.0511991 -0.0496341,0 -0.0903996,0.0181843 -0.122595,0.0542547 -0.0322696,0.0358468 -0.0482181,0.0848847 -0.0476964,0.146816l0.338868 0z"/>
   <path id="_1028487281234" class="fil0" d="M17.1539 17.6791l-0.205765 -0.0371883c0.0231775,-0.082947 0.0628251,-0.144133 0.119316,-0.184078 0.056714,-0.0396476 0.140481,-0.0597696 0.251748,-0.0597696 0.101355,0 0.176626,0.0121477 0.226185,0.0360704 0.0492615,0.0239973 0.0842885,0.0543292 0.10441,0.0912194 0.0201219,0.0368902 0.0302574,0.10441 0.0302574,0.203008l-0.00245935 0.264715c0,0.0751964 0.00357723,0.130867 0.0110298,0.166714 0.00715446,0.0354742 0.0209417,0.0740785 0.0407655,0.114844l-0.224546 0c-0.00573847,-0.0151287 -0.013191,-0.0374864 -0.0217615,-0.066924 -0.00357723,-0.0134891 -0.00633468,-0.0223577 -0.00797424,-0.0267547 -0.0388279,0.0377845 -0.0801151,0.0658807 -0.124234,0.0848847 -0.0440447,0.0187059 -0.0911449,0.0280962 -0.141301,0.0280962 -0.0881638,0 -0.157845,-0.0239973 -0.208523,-0.0716191 -0.0509755,-0.04792 -0.0763143,-0.108584 -0.0763143,-0.181843 0,-0.0482181 0.0115515,-0.091443 0.034729,-0.129451 0.0231029,-0.0380081 0.0555961,-0.066924 0.097256,-0.087046 0.0415853,-0.0201219 0.101877,-0.0377845 0.180427,-0.0529132 0.105752,-0.0198238 0.179309,-0.0385298 0.220074,-0.0556707l0 -0.0225813c0,-0.0437466 -0.0107317,-0.0746002 -0.0321951,-0.0933806 -0.0215379,-0.0184078 -0.0620053,-0.0277981 -0.121775,-0.0277981 -0.040542,0 -0.0719172,0.00797424 -0.0944985,0.0239973 -0.0225813,0.0156504 -0.0407655,0.043523 -0.0548509,0.0834687zm0.303319 0.184004c-0.0289159,0.00961381 -0.0748983,0.0211653 -0.138021,0.0346544 -0.0628251,0.0135637 -0.103814,0.0267547 -0.123414,0.0394241 -0.0294376,0.0212398 -0.0443428,0.0476219 -0.0443428,0.0798915 0,0.0319715 0.0118496,0.0592479 0.0355487,0.0823508 0.0236992,0.0231775 0.053733,0.034729 0.0903251,0.034729 0.0410636,0 0.0798915,-0.0134891 0.11708,-0.0402438 0.0275745,-0.0203455 0.0454606,-0.0454606 0.0540311,-0.0751964 0.00603658,-0.0193021 0.00879403,-0.0561923 0.00879403,-0.110447l0 -0.0451625z"/>
   <path id="_10284872812345" class="fil0" d="M17.9327 17.4177l0.209044 0 0 0.116782c0.0746747,-0.0909213 0.163956,-0.136382 0.267249,-0.136382 0.0547763,0 0.102473,0.0113279 0.142717,0.0339092 0.0404674,0.0225813 0.0735568,0.056714 0.0994172,0.102473 0.0374864,-0.0457587 0.0782519,-0.0798915 0.121775,-0.102473 0.043523,-0.0225813 0.090027,-0.0339092 0.139661,-0.0339092 0.0628251,0 0.11626,0.0129675 0.159783,0.0386043 0.043523,0.0253387 0.0760162,0.0630487 0.0974795,0.112385 0.0157249,0.0365921 0.0234011,0.09584 0.0234011,0.177669l0 0.547913 -0.226707 0 0 -0.489783c0,-0.0851083 -0.00767614,-0.139959 -0.0234011,-0.164702 -0.0209417,-0.0322696 -0.0531368,-0.0485162 -0.0966598,-0.0485162 -0.0319715,0 -0.0617072,0.00961381 -0.0898034,0.0292141 -0.0278726,0.0193021 -0.04792,0.0476219 -0.0603658,0.0851083 -0.0123713,0.0374864 -0.0187059,0.0964362 -0.0187059,0.177147l0 0.411531 -0.226707 0 0 -0.469661c0,-0.0834687 -0.00417344,-0.137202 -0.0121477,-0.161423 -0.00797424,-0.0242954 -0.0206436,-0.0421815 -0.0374864,-0.0540311 -0.0170664,-0.0118496 -0.0399457,-0.0178862 -0.0690853,-0.0178862 -0.0350271,0 -0.0664023,0.00939023 -0.0942749,0.0283943 -0.0280962,0.0187059 -0.0481436,0.0459823 -0.0602912,0.0815311 -0.0121477,0.0355487 -0.0181843,0.0942004 -0.0181843,0.176551l0 0.416524 -0.226707 0 0 -0.85697z"/>
   <polygon id="_102848728123456" class="fil0" points="19.4653,18.2747 19.4653,18.0479 19.692,18.0479 19.692,18.2747 "/>
   <path id="_1028487281234567" class="fil0" d="M19.9533 17.4177l0.209044 0 0 0.116782c0.0746747,-0.0909213 0.163956,-0.136382 0.267249,-0.136382 0.0547763,0 0.102473,0.0113279 0.142717,0.0339092 0.0404674,0.0225813 0.0735568,0.056714 0.0994172,0.102473 0.0374864,-0.0457587 0.0782519,-0.0798915 0.121775,-0.102473 0.043523,-0.0225813 0.090027,-0.0339092 0.139661,-0.0339092 0.0628251,0 0.11626,0.0129675 0.159783,0.0386043 0.043523,0.0253387 0.0760162,0.0630487 0.0974795,0.112385 0.0157249,0.0365921 0.0234011,0.09584 0.0234011,0.177669l0 0.547913 -0.226707 0 0 -0.489783c0,-0.0851083 -0.00767614,-0.139959 -0.0234011,-0.164702 -0.0209417,-0.0322696 -0.0531368,-0.0485162 -0.0966598,-0.0485162 -0.0319715,0 -0.0617072,0.00961381 -0.0898034,0.0292141 -0.0278726,0.0193021 -0.04792,0.0476219 -0.0603658,0.0851083 -0.0123713,0.0374864 -0.0187059,0.0964362 -0.0187059,0.177147l0 0.411531 -0.226707 0 0 -0.469661c0,-0.0834687 -0.00417344,-0.137202 -0.0121477,-0.161423 -0.00797424,-0.0242954 -0.0206436,-0.0421815 -0.0374864,-0.0540311 -0.0170664,-0.0118496 -0.0399457,-0.0178862 -0.0690853,-0.0178862 -0.0350271,0 -0.0664023,0.00939023 -0.0942749,0.0283943 -0.0280962,0.0187059 -0.0481436,0.0459823 -0.0602912,0.0815311 -0.0121477,0.0355487 -0.0181843,0.0942004 -0.0181843,0.176551l0 0.416524 -0.226707 0 0 -0.85697z"/>
   <path id="_10284872812345678" class="fil0" d="M21.9821 18.002l0.226185 0.03771c-0.0292141,0.082947 -0.0748983,0.145996 -0.137723,0.189221 -0.062527,0.043523 -0.141077,0.0650609 -0.235277,0.0650609 -0.149051,0 -0.2592,-0.0485162 -0.330819,-0.145996 -0.0564904,-0.0779538 -0.0848847,-0.176626 -0.0848847,-0.295345 0,-0.14212 0.0371883,-0.253387 0.111565,-0.333875 0.074153,-0.0804132 0.168055,-0.120657 0.281558,-0.120657 0.127513,0 0.228123,0.0421815 0.301903,0.12647 0.0735568,0.0842885 0.108807,0.213218 0.105826,0.387012l-0.568333 0c0.00163956,0.0672221 0.0198238,0.119539 0.0548509,0.156727 0.0349525,0.0374864 0.0787736,0.0561923 0.130793,0.0561923 0.0355487,0 0.0652845,-0.00961381 0.0895798,-0.0289159 0.0242208,-0.0195257 0.0427032,-0.0506774 0.0547763,-0.0936042zm0.0129675 -0.229241c-0.00163956,-0.0658061 -0.0184824,-0.115664 -0.0506774,-0.149871 -0.0322696,-0.0341327 -0.0716191,-0.0511991 -0.1179,-0.0511991 -0.0496341,0 -0.0903996,0.0181843 -0.122595,0.0542547 -0.0322696,0.0358468 -0.0482181,0.0848847 -0.0476964,0.146816l0.338868 0z"/>
   <path id="_102848656" class="fil0" d="M24.6663 18.3574c0,0.0506774 -0.0410636,0.0917411 -0.0917411,0.0917411 -0.0506774,0 -0.0917411,-0.0410636 -0.0917411,-0.0917411l0 -0.970846 -0.616029 -0.534796 -0.647851 0.562445c-0.0381571,0.0330149 -0.095989,0.0288414 -0.129004,-0.00931571 -0.0330894,-0.0381571 -0.0289159,-0.095989 0.00931571,-0.129004l0.705236 -0.612303c0.0337601,-0.0313753 0.0865243,-0.0329403 0.122148,-0.00208672l0.701957 0.609322c0.0228048,0.0167683 0.03771,0.0438211 0.03771,0.0742275l0 1.01236z"/>
   <path id="_102848584" class="fil0" d="M22.6841 18.7223c-0.0506774,0 -0.0917411,-0.0410636 -0.0917411,-0.0917411 0,-0.0506774 0.0410636,-0.0917411 0.0917411,-0.0917411l0.00447154 0 0 0.000372628c0.0817546,-0.000372628 0.161944,-0.00976286 0.239376,-0.0273509 0.0770595,-0.017439 0.151138,-0.0431503 0.221043,-0.0757926 0.359437,-0.168428 0.613644,-0.526449 0.631232,-0.948041 0.00193767,-0.0504539 0.0444918,-0.0897289 0.0949457,-0.0877912 0.0504539,0.00201219 0.0897289,0.0445663 0.0877912,0.0950202 -0.0204946,0.492018 -0.317107,0.909809 -0.736611,1.10633 -0.0818292,0.0383062 -0.168428,0.06834 -0.258306,0.08876 -0.0896544,0.020271 -0.183184,0.0312262 -0.279471,0.0315989l0 0.000372628 -0.00447154 0z"/>
   <circle id="_102848512" class="fil2" cx="14.9051" cy="14.9051" r="14.9051"/>
   <circle id="_102848392" class="fil2" cx="14.9069" cy="14.9051" r="13.6127"/>
   <path id="_102848272" class="fil0" d="M3.76578 22.7374m1.30479 -0.803983l0.184675 0.23647 -0.485535 0.379336 0.365176 0.46735 0.485535 -0.379336 0.185345 0.237215 -1.20024 0.937756 -0.185345 -0.237215 0.531293 -0.415182 -0.365101 -0.46735 -0.531368 0.415182 -0.184749 -0.23647 1.20031 -0.937756zm-0.352134 2.05527m1.51622 -0.385074c-0.100237,-0.0968088 -0.220298,-0.126843 -0.360108,-0.0899525 -0.116185,0.0307046 -0.22626,0.0999389 -0.329925,0.20733 -0.104709,0.108435 -0.170813,0.221043 -0.198015,0.33775 -0.0329403,0.141077 0.00119241,0.260467 0.102547,0.358319 0.100461,0.0971069 0.221118,0.127141 0.361449,0.0897289 0.117229,-0.0307791 0.228048,-0.100237 0.332235,-0.20815 0.104187,-0.107913 0.169546,-0.220819 0.19563,-0.338495 0.032046,-0.140034 -0.00275745,-0.258977 -0.103814,-0.356531zm0.1571 -0.162615c0.166863,0.161124 0.244295,0.340582 0.232222,0.538522 -0.0119986,0.186165 -0.100013,0.364281 -0.264417,0.534498 -0.165223,0.171111 -0.340061,0.265758 -0.524213,0.283719 -0.196375,0.0189295 -0.378441,-0.0526896 -0.546347,-0.214857 -0.16813,-0.162391 -0.245786,-0.341626 -0.233191,-0.538001 0.0120732,-0.184153 0.100833,-0.361897 0.265982,-0.532933 0.165223,-0.171111 0.339986,-0.26628 0.524139,-0.285284 0.195853,-0.0194512 0.377696,0.0518698 0.545826,0.214336zm-0.453265 1.71111m1.09024 -1.07712l0.355115 0.287594 -0.379634 1.05417c-0.00946476,0.026233 -0.0259349,0.0599931 -0.049336,0.101728 -0.0200474,0.0346544 -0.044939,0.0751964 -0.0751964,0.121328 0.0571612,-0.0705013 0.120881,-0.127215 0.191084,-0.169695l0.962499 -0.581598 0.349972 0.283421 -0.958549 1.18369 -0.223204 -0.180725 0.708962 -0.875527c0.00946476,-0.011626 0.0264566,-0.0303319 0.0512736,-0.0563414l0.0371138 -0.0457587c0.0125948,-0.0156504 0.0278726,-0.032046 0.0459823,-0.0498577 0.00894308,-0.00924118 0.026084,-0.0245935 0.0510501,-0.0467276 -0.0415853,0.0322696 -0.0775812,0.0591734 -0.108062,0.0805622l-0.0766124 0.0538075 -1.0722 0.646286 -0.20815 -0.168577 0.40922 -1.16804c0.00327913,-0.0110298 0.0117751,-0.0314498 0.0251897,-0.0620053 0.00298103,-0.00707994 0.00931571,-0.0207181 0.0185569,-0.0415108l0.0584281 -0.112757 -0.157845 0.223875 -0.707546 0.873739 -0.206734 -0.167385 0.958623 -1.18369zm0.603732 2.35039m0.908244 -1.23437l0.805771 0.465189 -0.109404 0.189444 -0.5459 -0.315169 -0.201964 0.349823 0.517133 0.29855 -0.112012 0.19399 -0.517059 -0.29855 -0.222981 0.386192 0.565575 0.326497 -0.115291 0.199654 -0.825446 -0.476517 0.761578 -1.3191zm0.921286 2.2003m0.923149 -1.02592l-0.397892 0.984782 0.160826 0.0649864c0.156355,0.0631232 0.295718,0.0690107 0.417269,0.0170664 0.121924,-0.0517953 0.21441,-0.15561 0.277608,-0.312039 0.0649864,-0.160826 0.0708739,-0.300487 0.0175135,-0.418312 -0.0530623,-0.117751 -0.160901,-0.209417 -0.322323,-0.274702l-0.153001 -0.0617818zm-0.195481 -0.322845l0.404376 0.16336c0.238408,0.0963617 0.397073,0.199878 0.475995,0.310325 0.15002,0.211802 0.17044,0.45319 0.0606639,0.724911 -0.109776,0.271795 -0.293482,0.430386 -0.55067,0.475995 -0.144505,0.0257113 -0.337154,-0.0103591 -0.578319,-0.107764l-0.382689 -0.154641 0.570643 -1.41219zm0.797946 1.91948m0.532858 -1.43693l0.902729 0.225067 -0.0529132 0.212324 -0.611632 -0.152479 -0.0977031 0.39193 0.579362 0.144431 -0.0541801 0.217317 -0.579362 -0.144505 -0.107913 0.43277 0.633692 0.157994 -0.0557452 0.223651 -0.924863 -0.230582 0.368529 -1.47792zm0.704491 1.72229m0.456917 -1.46286l0.294525 0.0572357 -0.246233 1.26679 0.599708 0.116633 -0.0443428 0.228347 -0.894308 -0.173794 0.29065 -1.49521zm0.681612 1.63852m0.301903 -1.50259l0.298848 0.0261585 -0.13273 1.51734 -0.298922 -0.026084 0.132805 -1.51742zm0.3496 1.56847m0.0743766 -1.52152l0.318448 0.0111788 0.355413 1.27066 0.447601 -1.24264 0.305257 0.0106572 -0.595013 1.50333 -0.364132 -0.0127439 -0.467574 -1.54045zm1.4139 1.54343m0.0359959 -1.5321l0.926875 -0.0810839 0.019004 0.217913 -0.627879 0.0549999 0.0351761 0.402364 0.594864 -0.0520189 0.0194512 0.223055 -0.594789 0.0520934 0.0388279 0.444247 0.650609 -0.0569376 0.0201219 0.229614 -0.949531 0.0830961 -0.13273 -1.51734zm1.24525 1.42232m0.206734 -1.37559l0.0875676 0.450284 0.151511 -0.0294376c0.199282,-0.0387533 0.284166,-0.133475 0.254803,-0.284315 -0.0289905,-0.149424 -0.150542,-0.203306 -0.364654,-0.161721l-0.129227 0.0251897zm-0.331117 -0.151883l0.489261 -0.0950947c0.364803,-0.0709484 0.572208,0.021836 0.622066,0.278651 0.0382317,0.19645 -0.042256,0.338048 -0.241612,0.424871 0.0534349,0.00640921 0.100013,0.0275745 0.138767,0.0636449 0.0258604,0.0239973 0.0582045,0.0658807 0.0966598,0.125427l0.308238 0.479423 -0.310325 0.0602912 -0.256443 -0.419803c-0.0371138,-0.060962 -0.0768359,-0.100162 -0.119017,-0.117676 -0.0441192,-0.0182588 -0.102696,-0.0203455 -0.175657,-0.00618563l-0.0925609 0.0180352 0.121849 0.627059 -0.290575 0.0564904 -0.29065 -1.49513zm1.47367 1.2641m-0.464146 -1.45146l0.331639 -0.0950947 0.546049 0.558272 0.167161 -0.76277 0.312039 -0.0894308 -0.28208 1.03777 0.166267 0.579959 -0.289532 0.0830216 -0.165149 -0.576083 -0.786395 -0.735643zm2.51792 0.770893m-0.621469 -1.3908l1.00438 -0.468319 0.0992682 0.212845 -0.368082 0.171633 0.544484 1.16752 -0.272913 0.12729 -0.54441 -1.16759 -0.363462 0.169546 -0.0992682 -0.21292zm1.69851 0.885886m-0.614911 -1.40377l0.805771 -0.465189 0.109404 0.189444 -0.5459 0.315169 0.201964 0.349823 0.517133 -0.29855 0.111938 0.19399 -0.517059 0.29855 0.222981 0.386192 0.565575 -0.326571 0.115217 0.199654 -0.825446 0.476517 -0.761578 -1.31903zm1.7205 0.767167m-0.132507 -1.47211l0.195406 0.70464 0.406388 -0.295271 -0.601795 -0.409369zm-0.291842 -0.102324l0.293035 -0.21292 1.3715 0.886259 -0.261958 0.190338 -0.313977 -0.21687 -0.536659 0.389918 0.104783 0.368902 -0.240941 0.174986 -0.415779 -1.58061zm1.66677 0.674383m-0.936191 -1.21335l0.328733 -0.317405 0.999985 0.505209c0.0248916,0.0125948 0.0564159,0.0330894 0.0949457,0.0614091 0.0319715,0.0240718 0.0691598,0.053733 0.111267,0.0894308 -0.0630487,-0.065359 -0.11149,-0.135488 -0.145101,-0.210311l-0.459972 -1.02629 0.323963 -0.312784 1.05804 1.0956 -0.206585 0.19958 -0.782594 -0.810392c-0.0103591,-0.0108062 -0.0269038,-0.0299593 -0.0497086,-0.0577574l-0.0408401 -0.0424051c-0.0140108,-0.014458 -0.0284688,-0.0315989 -0.0438956,-0.0517953 -0.00804877,-0.00991191 -0.0212398,-0.0287669 -0.0401693,-0.0563414 0.0269783,0.0453116 0.0492615,0.0842885 0.066775,0.117154l0.0441192 0.0825744 0.510724 1.14293 -0.192649 0.186091 -1.10946 -0.548509c-0.0105826,-0.00462059 -0.0298103,-0.0155013 -0.0585026,-0.0325677 -0.00663278,-0.00380081 -0.0194512,-0.0117751 -0.0389024,-0.0234011l-0.104783 -0.0718427 0.203008 0.184004 0.780954 0.808752 -0.191307 0.184749 -1.05804 -1.09568zm3.7309 -1.9478m-0.603285 -1.95376l0.193841 0.143015 -0.0266802 0.0241463c-0.122595,0.110223 -0.203455,0.200996 -0.243028,0.272317 -0.0821273,0.148157 -0.102398,0.294973 -0.0606639,0.440745 0.0418089,0.145772 0.136829,0.259498 0.285061,0.341626 0.143015,0.0792953 0.283645,0.0987465 0.421666,0.0580555 0.138469,-0.0407655 0.247202,-0.13273 0.326497,-0.275819 0.016023,-0.0287669 0.0319715,-0.0818292 0.04792,-0.159634l0.00737804 -0.0351761 -0.34021 -0.18855 -0.136158 0.245711 -0.188475 -0.104485 0.273882 -0.49403 0.687946 0.381348c-0.0221341,0.117005 -0.0447899,0.210684 -0.0675948,0.28126 -0.0228794,0.0705758 -0.0505284,0.135637 -0.0835432,0.195108 -0.124011,0.223726 -0.281334,0.370318 -0.471598,0.439701 -0.200474,0.0724389 -0.410711,0.0479945 -0.630561,-0.0738549 -0.225216,-0.124905 -0.359884,-0.294004 -0.404078,-0.507147 -0.0416598,-0.201815 0.000968833,-0.417418 0.127737,-0.646212 0.0277235,-0.0499322 0.0918156,-0.130271 0.192723,-0.241314l0.0879403 -0.0968088zm1.37954 0.504986m-1.32261 -0.774247l0.378441 -0.849965 0.199878 0.0889836 -0.256368 0.57586 0.369051 0.164255 0.242805 -0.545453 0.204647 0.0910703 -0.242879 0.545528 0.407357 0.181395 0.265684 -0.596652 0.210535 0.0937533 -0.387608 0.870758 -1.39154 -0.619532zm2.07651 -1.17952m-1.42739 -0.557824l0.0776557 -0.28983 1.24652 0.334024 0.158069 -0.590169 0.224769 0.0602167 -0.235799 0.879924 -1.47121 -0.394166zm1.69732 -0.473983m-1.16715 -1.04172c-0.0241463,0.137276 0.0180352,0.253611 0.126843,0.348929 0.0903996,0.0791462 0.209343,0.131612 0.356382,0.157547 0.148455,0.026233 0.2788,0.0180352 0.390738,-0.024668 0.135413,-0.0515717 0.215305,-0.146741 0.239749,-0.285433 0.0242208,-0.137574 -0.0182588,-0.254356 -0.127737,-0.349823 -0.0910703,-0.079966 -0.210609,-0.133028 -0.358394,-0.159038 -0.14771,-0.026084 -0.277832,-0.0170664 -0.389993,0.0271273 -0.133997,0.0517208 -0.213143,0.147039 -0.237588,0.285359zm-0.222683 -0.039275c0.0403184,-0.228421 0.145847,-0.392974 0.316659,-0.493583 0.16105,-0.0942004 0.357947,-0.120806 0.590988,-0.0797424 0.234234,0.0412872 0.410413,0.133326 0.528312,0.275968 0.125501,0.152181 0.167981,0.343191 0.127439,0.573028 -0.0406165,0.230284 -0.145772,0.394837 -0.315616,0.494254 -0.15941,0.0929335 -0.356382,0.118719 -0.590616,0.0774321 -0.234234,-0.0412872 -0.41086,-0.132954 -0.529579,-0.275 -0.12565,-0.151436 -0.16813,-0.342073 -0.127588,-0.572357zm1.66595 -0.587337m-1.4499 -1.44177l0.238333 0.0351761 -0.0122967 0.0339092c-0.0564159,0.154864 -0.0852573,0.272913 -0.0866733,0.354518 -0.00298103,0.169397 0.048069,0.308536 0.153299,0.417642 0.105379,0.109031 0.242655,0.164851 0.412127,0.167832 0.163435,0.00283197 0.296761,-0.0460568 0.399532,-0.146741 0.103143,-0.100982 0.155982,-0.233265 0.158814,-0.396849 0.000596205,-0.0329403 -0.01021,-0.087195 -0.0327168,-0.163435l-0.00991191 -0.0345054 -0.388949 -0.00678183 -0.00484417 0.280887 -0.215454 -0.00372628 0.00983739 -0.56483 0.786544 0.0137127c0.0353252,0.113726 0.0592479,0.207032 0.0722899,0.280142 0.0129675,0.0730351 0.0190786,0.143387 0.0178862,0.211429 -0.00447154,0.255772 -0.0746002,0.459078 -0.210013,0.60962 -0.143015,0.158143 -0.340061,0.235203 -0.591436,0.230806 -0.257486,-0.00447154 -0.455724,-0.0906232 -0.594864,-0.258082 -0.131538,-0.158591 -0.195183,-0.368976 -0.190562,-0.630487 0.000968833,-0.0570866 0.0198983,-0.158143 0.0568631,-0.303543l0.0321951 -0.126694zm1.50177 -0.204647m-1.53217 -0.0363685l-0.0261585 -0.298922 1.51742 -0.13273 0.026084 0.298922 -1.51734 0.13273zm1.50318 -0.6442m-1.61639 -0.840947l0.240494 -0.00789972c-0.0353252,0.119092 -0.045088,0.233861 -0.0295867,0.344383 0.0237737,0.169173 0.0915175,0.245786 0.20353,0.230061 0.0662533,-0.00931571 0.128482,-0.100461 0.186463,-0.273435l0.0131165 -0.0384552c0.0447899,-0.133326 0.0908468,-0.231477 0.138245,-0.294227 0.0687126,-0.0921137 0.158665,-0.145772 0.269559,-0.161348 0.151436,-0.0212398 0.279024,0.0221341 0.383285,0.130196 0.093008,0.0965852 0.150393,0.223428 0.172452,0.380677 0.0126694,0.0898034 0.00409891,0.212547 -0.0261585,0.368306l-0.0081233 0.0421815 -0.261883 0.0087195c0.0547763,-0.170664 0.0757926,-0.299593 0.0635704,-0.38649 -0.00976286,-0.0692343 -0.033313,-0.126917 -0.0707994,-0.172974 -0.0443428,-0.0550745 -0.0989701,-0.0781029 -0.16336,-0.0690107 -0.0736313,0.0102845 -0.142717,0.102398 -0.207703,0.275968l-0.0105826 0.0273509 -0.0115515 0.0330149c-0.0438956,0.124383 -0.0901015,0.216572 -0.138469,0.276937 -0.0658061,0.081382 -0.152107,0.129675 -0.258977,0.144729 -0.141673,0.0198983 -0.259349,-0.0234756 -0.353028,-0.129973 -0.0805622,-0.0921137 -0.131463,-0.212473 -0.152479,-0.362046 -0.00916665,-0.0656571 -0.0052168,-0.162988 0.0122222,-0.291768l0.00976286 -0.0748983zm1.44915 -0.410264m-1.50378 0.26479l-0.257263 -1.03196 0.241761 -0.0602912 1.20098 0.503719 -0.190562 -0.764335 0.223651 -0.0557452 0.265013 1.06288 -0.255996 0.0638685 -1.18943 -0.499843 0.181246 0.726998 -0.219403 0.0547018zm1.22856 -1.51608m-1.44818 0.472716l-0.360779 -1.04783 0.222086 -0.0764633 0.132208 0.383956 1.21812 -0.41943 0.0980012 0.284688 -1.21805 0.41943 0.130569 0.379186 -0.222161 0.0764633zm1.07637 -1.59231m-1.47583 0.41317l-0.112385 -0.278204 1.41219 -0.570568 0.112459 0.278204 -1.41226 0.570568zm1.24935 -1.04977m-1.42441 0.565501l-0.140853 -0.264939 0.586666 -0.31189 -0.849816 -0.18296 -0.161572 -0.30399 0.917932 0.222981 0.399234 -0.990073 0.178116 0.334993 -0.3692 0.858014 0.643529 -0.342147 0.140853 0.264939 -1.34489 0.715074zm0.802269 -1.83877m-1.47702 0.055298l0.713881 -0.158292 -0.273584 -0.421293 -0.440298 0.579586zm-0.117452 0.286029l-0.197269 -0.303692 0.956835 -1.32328 0.176328 0.271571 -0.233042 0.302201 0.3613 0.556334 0.373895 -0.0853319 0.162168 0.249735 -1.60021 0.332459zm-0.158292 -2.77802m-1.21358 0.935968l-0.208448 -0.215826 0.443279 -0.428075 -0.412052 -0.426585 -0.443204 0.428001 -0.209193 -0.216572 1.09568 -1.05804 0.209193 0.216572 -0.485087 0.468394 0.411978 0.426659 0.485087 -0.468468 0.208448 0.215826 -1.09568 1.05812zm0.124756 -2.05549m-1.46771 0.541429c0.109851,0.0858535 0.232371,0.103143 0.367635,0.0518698 0.11231,-0.0427032 0.214485,-0.123042 0.306375,-0.240718 0.092859,-0.118794 0.146816,-0.237662 0.161646,-0.356605 0.0180352,-0.14376 -0.0284688,-0.258902 -0.139437,-0.34565 -0.110074,-0.0860026 -0.233191,-0.103293 -0.368827,-0.0514227 -0.113428,0.0428522 -0.216348,0.123489 -0.308685,0.241687 -0.0923373,0.118272 -0.145549,0.237364 -0.159187,0.357127 -0.0172154,0.142642 0.0298103,0.257263 0.140481,0.343712zm-0.139214 0.178191c-0.182811,-0.142791 -0.278502,-0.313231 -0.287222,-0.51132 -0.00752709,-0.186463 0.0614091,-0.372703 0.207107,-0.55924 0.146443,-0.187357 0.310399,-0.299817 0.491646,-0.33693 0.19332,-0.0393495 0.381869,0.0128929 0.565799,0.156578 0.184227,0.143909 0.280216,0.314051 0.288191,0.51065 0.00730351,0.184451 -0.0624525,0.370467 -0.208821,0.557899 -0.146443,0.187357 -0.310325,0.300264 -0.491422,0.338495 -0.192798,0.0397967 -0.38105,-0.0121477 -0.565277,-0.156131zm0.3025 -1.79532m-0.886632 1.25009l-0.399681 -0.221565 0.190786 -1.1041c0.00476964,-0.0275 0.0152032,-0.0635704 0.0310027,-0.108733 0.0137127,-0.0375609 0.0311517,-0.0818292 0.0529132,-0.132581 -0.0439701,0.0794443 -0.0968833,0.146294 -0.158665,0.200325l-0.846909 0.739891 -0.393868 -0.218286 0.7384 -1.33222 0.251226 0.139288 -0.546124 0.985304c-0.00730351,0.013042 -0.0208672,0.0344308 -0.0407655,0.0643902l-0.0285433 0.0514972c-0.00976286,0.0175881 -0.0219105,0.036443 -0.0366666,0.0570866 -0.00715446,0.0106572 -0.0213889,0.0287669 -0.0421815,0.0548509 0.0353997,-0.0389769 0.0661788,-0.0716937 0.0924863,-0.0980757l0.0660297 -0.0663278 0.943718 -0.822614 0.234309 0.129898 -0.200176 1.22133c-0.00134146,0.0114769 -0.0061111,0.0330149 -0.0140108,0.0654335 -0.00171409,0.00752709 -0.00558942,0.0220596 -0.0111043,0.0440447l-0.0379336 0.121253 0.116558 -0.247947 0.545006 -0.983291 0.232669 0.128929 -0.738475 1.33222zm-0.975764 -2.25992m-0.774247 1.32261l-0.849965 -0.378441 0.0889836 -0.199878 0.57586 0.256368 0.164255 -0.369051 -0.545453 -0.242805 0.0910703 -0.204647 0.545528 0.242879 0.181395 -0.407357 -0.596652 -0.265684 0.0937533 -0.210535 0.870758 0.387608 -0.619532 1.39154zm-1.15001 -2.11288m-0.751293 1.15768l0.238929 -1.03486 -0.16895 -0.0390514c-0.164329,-0.0379336 -0.302872,-0.021836 -0.414884,0.0484417 -0.11231,0.0702032 -0.187432,0.187208 -0.225366,0.351612 -0.0389769,0.169024 -0.0229539,0.307865 0.0481436,0.415928 0.0708739,0.107988 0.19168,0.181694 0.361375,0.220819l0.160752 0.0371138zm0.243624 0.28834l-0.424945 -0.0981503c-0.25063,-0.0578319 -0.423455,-0.135264 -0.518698,-0.231998 -0.181321,-0.185718 -0.239302,-0.420995 -0.173347,-0.706503 0.0658807,-0.285582 0.222534,-0.470928 0.469363,-0.556334 0.138767,-0.04792 0.334695,-0.0424796 0.588082,0.016023l0.40214 0.092859 -0.342594 1.4841zm-1.08398 -1.81917m-0.353773 1.49118l-0.923447 -0.113428 0.0266802 -0.217168 0.625643 0.0768359 0.0492615 -0.400948 -0.592702 -0.072737 0.0272764 -0.22231 0.592702 0.0728116 0.0543292 -0.442682 -0.648224 -0.0795934 0.0280962 -0.228794 0.946029 0.116185 -0.185643 1.51183zm-0.911449 -1.66684m-0.195928 1.51995l-0.30004 -0.0052168 0.0225067 -1.29026 -0.610812 -0.0106572 0.00402438 -0.232669 0.910852 0.015874 -0.0265311 1.52293zm-0.948562 -1.54186m-0.143164 1.52591l-0.299966 0.0052168 -0.0266057 -1.52293 0.299966 -0.0052168 0.0266057 1.52293zm-0.522425 -1.504m0.0850338 1.52092l-0.317852 0.0222086 -0.48628 -1.22662 -0.315243 1.28266 -0.304735 0.0213143 0.434708 -1.55721 0.363462 -0.0254132 0.625941 1.48306zm-1.67012 -1.36725m0.177595 1.52219l-0.90653 0.209343 -0.0492615 -0.213218 0.61424 -0.141822 -0.0909213 -0.39357 -0.581747 0.13437 -0.0503793 -0.218211 0.581747 -0.13437 -0.100312 -0.434485 -0.6363 0.14689 -0.0518698 -0.22462 0.928664 -0.21441 0.342669 1.4841zm-1.44282 -1.25874m-0.0375609 1.39057l-0.141748 -0.436348 -0.146816 0.0476964c-0.193096,0.0627506 -0.265758,0.167161 -0.218286,0.313306 0.0470257,0.144729 0.174241,0.183408 0.381646,0.116036l0.125203 -0.040691zm0.34714 0.110372l-0.473983 0.15397c-0.353475,0.114919 -0.570568,0.048069 -0.651429,-0.200698 -0.0618563,-0.190413 0.000819782,-0.340731 0.188103,-0.451178 -0.053882,0.000149051 -0.102696,-0.0152032 -0.145474,-0.0462059 -0.0286178,-0.0207181 -0.0658061,-0.0583536 -0.111267,-0.112757l-0.36443 -0.438285 0.300711 -0.0977031 0.305704 0.385447c0.0442682,0.0559688 0.0884619,0.0901015 0.132432,0.102324 0.0460568,0.0127439 0.10441,0.00767614 0.175135,-0.0153523l0.0897289 -0.0291395 -0.197418 -0.607533 0.281483 -0.0915175 0.470704 1.44863zm-1.61654 -1.08383m0.661639 1.37269l-0.315169 0.140332 -0.618414 -0.476815 -0.0594715 0.778644 -0.296463 0.131985 0.134891 -1.06698 -0.245338 -0.551117 0.275074 -0.12252 0.243773 0.547465 0.881117 0.61901zm-2.60318 -0.428746m0.78632 1.30472l-0.939768 0.587262 -0.124458 -0.199207 0.344383 -0.21523 -0.682655 -1.09247 0.255325 -0.159559 0.682655 1.09247 0.340061 -0.212473 0.124458 0.199207zm-1.79473 -0.690107m0.804281 1.30457l-0.733183 0.572804 -0.134668 -0.172452 0.496713 -0.388055 -0.248692 -0.318299 -0.470555 0.36756 -0.137872 -0.176402 0.470555 -0.367635 -0.274552 -0.351463 -0.514674 0.402066 -0.141897 -0.181619 0.751069 -0.586815 0.937756 1.20031zm-1.82804 -0.514301m0.310921 1.44498l-0.279844 -0.675575 -0.367337 0.342594 0.647181 0.332981zm0.302127 0.0659552l-0.264864 0.247053 -1.46935 -0.712465 0.236842 -0.220894 0.338048 0.177073 0.485162 -0.452445 -0.148977 -0.353401 0.217838 -0.203082 0.605297 1.51816zm-1.74144 -0.479125m1.07712 1.09024l-0.287594 0.355115 -1.05417 -0.379634c-0.026233,-0.00946476 -0.0599931,-0.0259349 -0.101728,-0.049336 -0.0346544,-0.0200474 -0.0751964,-0.044939 -0.121328,-0.0751964 0.0705013,0.0571612 0.127215,0.120881 0.169695,0.191084l0.581598 0.962499 -0.283421 0.349972 -1.18369 -0.958549 0.180725 -0.223204 0.875527 0.708962c0.011626,0.00946476 0.0303319,0.0264566 0.0563414,0.0512736l0.0457587 0.0371138c0.0156504,0.0125948 0.032046,0.0278726 0.0498577,0.0459823 0.00924118,0.00894308 0.0245935,0.026084 0.0467276,0.0510501 -0.0322696,-0.0415853 -0.0591734,-0.0775812 -0.0805622,-0.108062l-0.0538075 -0.0766124 -0.646286 -1.0722 0.168577 -0.20815 1.16804 0.40922c0.0110298,0.00327913 0.0314498,0.0117751 0.0620053,0.0251897 0.00707994,0.00298103 0.0207181,0.00931571 0.0415108,0.0185569l0.112757 0.0584281 -0.223875 -0.157845 -0.873739 -0.707546 0.167385 -0.206734 1.18369 0.958623z"/>
  </g>
 </g>
</svg>
