<?xml version="1.0" encoding="UTF-8"?>
<!DOCTYPE svg PUBLIC "-//W3C//DTD SVG 1.1//EN" "http://www.w3.org/Graphics/SVG/1.1/DTD/svg11.dtd">
<!-- Creator: CorelDRAW -->
<svg xmlns="http://www.w3.org/2000/svg" xml:space="preserve" width="60.5421mm" height="38.2227mm" style="shape-rendering:geometricPrecision; text-rendering:geometricPrecision; image-rendering:optimizeQuality; fill-rule:evenodd; clip-rule:evenodd"
viewBox="0 0 79.9128 50.4522"
 xmlns:xlink="http://www.w3.org/1999/xlink">
 <defs>
  <style type="text/css">
   <![CDATA[
    .str0 {stroke:#1F1A17;stroke-width:0.362196;stroke-linecap:round;stroke-linejoin:round}
    .fil0 {fill:none;fill-rule:nonzero}
    .fil1 {fill:#1F1A17;fill-rule:nonzero}
   ]]>
  </style>
 </defs>
 <g id="Layer_x0020_1">
  <metadata id="CorelCorpID_0Corel-Layer"/>
  <g>
   <path class="fil0 str0" d="M16.3876 8.41379l0 -5.73111 0.75937 0 0 2.35388 2.97835 0 0 -2.35388 0.759238 0 0 5.73111 -0.759238 0 0 -2.70089 -2.97835 0 0 2.70089 -0.75937 0zm5.75091 -2.79157c0,-0.951423 0.254883,-1.69588 0.765838,-2.23376 0.511086,-0.53775 1.17027,-0.807152 1.97901,-0.807152 0.528246,0 1.00594,0.126584 1.4303,0.378827 0.424233,0.253695 0.748678,0.605859 0.971355,1.05834 0.223072,0.451029 0.333685,0.964491 0.333685,1.53709 0,0.581704 -0.116156,1.10216 -0.350976,1.55979 -0.234688,0.45908 -0.567185,0.805964 -0.996698,1.0421 -0.430965,0.236272 -0.894137,0.353616 -1.39176,0.353616 -0.540389,0 -1.02204,-0.129488 -1.44641,-0.390971 -0.425817,-0.260163 -0.747226,-0.616419 -0.966207,-1.06732 -0.218717,-0.449841 -0.328141,-0.927532 -0.328141,-1.43057zm0.781941 0.0121436c0,0.691128 0.185454,1.23416 0.556361,1.63186 0.372227,0.397702 0.838039,0.596356 1.39849,0.596356 0.571144,0 1.04065,-0.200105 1.40905,-0.601635 0.368399,-0.401662 0.553721,-0.971355 0.553721,-1.70934 0,-0.465812 -0.0801213,-0.872754 -0.23746,-1.22096 -0.157603,-0.348336 -0.388331,-0.617739 -0.691392,-0.810056 -0.304118,-0.190865 -0.644402,-0.286694 -1.02204,-0.286694 -0.537618,0 -0.999338,0.18387 -1.38622,0.553721 -0.387011,0.368135 -0.580516,0.984554 -0.580516,1.84675zm5.87485 2.77943l0 -5.73111 1.14229 0 1.35559 4.0578c0.125396,0.377639 0.217529,0.660373 0.273627,0.848599 0.0654698,-0.208157 0.166842,-0.514914 0.30557,-0.919216l1.3717 -3.98719 1.02072 0 0 5.73111 -0.730991 0 0 -4.79698 -1.66552 4.79698 -0.684397 0 -1.65734 -4.87842 0 4.87842 -0.731255 0zm6.93174 0l0 -5.73111 4.14321 0 0 0.676609 -3.38529 0 0 1.75462 3.1704 0 0 0.672517 -3.1704 0 0 1.95076 3.51887 0 0 0.676609 -4.27679 0zm-35.5462 8.94401l0 -5.73111 1.9736 0c0.445749,0 0.785769,0.028115 1.02072,0.0828932 0.328141,0.0747094 0.608499,0.211985 0.840811,0.409582 0.301478,0.256071 0.528246,0.581836 0.677665,0.979274 0.151003,0.397702 0.225448,0.851503 0.225448,1.36246 0,0.435057 -0.0506863,0.820748 -0.153247,1.15681 -0.101373,0.336324 -0.23086,0.615231 -0.390971,0.835267 -0.158791,0.220432 -0.332233,0.393874 -0.521778,0.51927 -0.188226,0.126716 -0.416446,0.222808 -0.683209,0.288278 -0.268215,0.0652058 -0.575236,0.0972807 -0.9208,0.0972807l-2.06824 0zm0.757918 -0.676609l1.22347 0c0.377771,0 0.675421,-0.0347148 0.890045,-0.105332 0.215021,-0.0707496 0.385823,-0.169482 0.513858,-0.297518 0.180174,-0.178722 0.320353,-0.421726 0.420274,-0.724655 0.100185,-0.304118 0.150871,-0.671065 0.150871,-1.10467 0,-0.599259 -0.0987326,-1.05953 -0.294878,-1.38133 -0.197465,-0.322597 -0.436377,-0.537618 -0.717923,-0.647042 -0.202745,-0.0788013 -0.53115,-0.117344 -0.980726,-0.117344l-1.20499 0 0 4.37789zm5.26226 0.676609l0 -5.73111 4.14334 0 0 0.676609 -3.38529 0 0 1.75462 3.1704 0 0 0.672649 -3.1704 0 0 1.95063 3.51874 0 0 0.676609 -4.27679 0zm5.51464 0l0 -5.73111 0.75937 0 0 5.0545 2.8222 0 0 0.676609 -3.58157 0zm4.83697 0l0 -5.73111 0.757918 0 0 5.73111 -0.757918 0zm3.95472 0l-2.2203 -5.73111 0.821936 0 1.48904 4.16327c0.120248,0.333685 0.220168,0.647174 0.30029,0.93796 0.0893609,-0.312301 0.192053,-0.624471 0.309661,-0.93796l1.54778 -4.16327 0.774021 0 -2.24445 5.73111 -0.777981 0zm3.94125 0l0 -5.73111 4.14321 0 0 0.676609 -3.38529 0 0 1.75462 3.1704 0 0 0.672649 -3.1704 0 0 1.95063 3.51887 0 0 0.676609 -4.27679 0zm5.55873 0l0 -5.73111 2.54052 0c0.511218,0 0.899285,0.0521382 1.16486,0.154699 0.265707,0.102824 0.477692,0.28445 0.637802,0.544613 0.159055,0.261483 0.237592,0.549629 0.237592,0.86457 0,0.406942 -0.130676,0.748678 -0.394798,1.02758 -0.263067,0.278906 -0.670009,0.456176 -1.21977,0.532338 0.201689,0.0960927 0.353748,0.190865 0.45776,0.285638 0.221488,0.202745 0.430965,0.457628 0.629882,0.761746l0.996698 1.55992 -0.954063 0 -0.75805 -1.19298c-0.221488,-0.342924 -0.404302,-0.607047 -0.548309,-0.788409 -0.142819,-0.183078 -0.270855,-0.311113 -0.384371,-0.383183 -0.113516,-0.0732575 -0.22822,-0.123944 -0.345432,-0.153247 -0.086985,-0.0174234 -0.2269,-0.0269271 -0.423177,-0.0269271l-0.879354 0 0 2.54474 -0.757786 0zm0.757786 -3.20102l1.63067 0c0.345564,0 0.617739,-0.0361668 0.812696,-0.108104 0.196145,-0.0720695 0.344112,-0.186774 0.445485,-0.344376 0.101637,-0.157471 0.152323,-0.328141 0.152323,-0.513726 0,-0.270855 -0.0975447,-0.493663 -0.295142,-0.668557 -0.196013,-0.17463 -0.506863,-0.261483 -0.932548,-0.261483l-1.81349 0 0 1.89625zm6.70484 3.20102l0 -2.42713 -2.20842 -3.30398 0.921988 0 1.13015 1.72808c0.208289,0.322861 0.401662,0.645854 0.581836,0.970035 0.172122,-0.300158 0.380279,-0.637802 0.625923,-1.01267l1.11021 -1.68545 0.883314 0 -2.28722 3.30398 0 2.42713 -0.757786 0zm-17.8678 8.94415l0 -5.0545 -1.88793 0 0 -0.676609 4.5421 0 0 0.676609 -1.89625 0 0 5.0545 -0.757918 0zm3.67053 0l0 -5.73111 4.14334 0 0 0.676609 -3.38529 0 0 1.75462 3.1704 0 0 0.672517 -3.1704 0 0 1.95076 3.51874 0 0 0.676609 -4.27679 0zm4.91696 0l2.20168 -5.73111 0.816656 0 2.34582 5.73111 -0.864834 0 -0.668425 -1.73614 -2.39651 0 -0.628562 1.73614 -0.805832 0zm1.65338 -2.35388l1.94403 0 -0.599259 -1.58645c-0.181362,-0.481915 -0.317449,-0.878166 -0.40549,-1.18888 -0.0733895,0.368135 -0.176082,0.732443 -0.309661,1.09543l-0.629618 1.67991zm4.51491 2.35388l0 -5.73111 1.14229 0 1.35559 4.0578c0.125396,0.377639 0.217529,0.660373 0.273627,0.848731 0.0654698,-0.208289 0.166842,-0.515046 0.30557,-0.919348l1.37183 -3.98719 1.02072 0 0 5.73111 -0.731123 0 0 -4.79698 -1.66539 4.79698 -0.684529 0 -1.6572 -4.87842 0 4.87842 -0.731387 0z"/>
   <path id="1" class="fil1" d="M16.3876 8.41379l0 -5.73111 0.75937 0 0 2.35388 2.97835 0 0 -2.35388 0.759238 0 0 5.73111 -0.759238 0 0 -2.70089 -2.97835 0 0 2.70089 -0.75937 0zm5.75091 -2.79157c0,-0.951423 0.254883,-1.69588 0.765838,-2.23376 0.511086,-0.53775 1.17027,-0.807152 1.97901,-0.807152 0.528246,0 1.00594,0.126584 1.4303,0.378827 0.424233,0.253695 0.748678,0.605859 0.971355,1.05834 0.223072,0.451029 0.333685,0.964491 0.333685,1.53709 0,0.581704 -0.116156,1.10216 -0.350976,1.55979 -0.234688,0.45908 -0.567185,0.805964 -0.996698,1.0421 -0.430965,0.236272 -0.894137,0.353616 -1.39176,0.353616 -0.540389,0 -1.02204,-0.129488 -1.44641,-0.390971 -0.425817,-0.260163 -0.747226,-0.616419 -0.966207,-1.06732 -0.218717,-0.449841 -0.328141,-0.927532 -0.328141,-1.43057zm0.781941 0.0121436c0,0.691128 0.185454,1.23416 0.556361,1.63186 0.372227,0.397702 0.838039,0.596356 1.39849,0.596356 0.571144,0 1.04065,-0.200105 1.40905,-0.601635 0.368399,-0.401662 0.553721,-0.971355 0.553721,-1.70934 0,-0.465812 -0.0801213,-0.872754 -0.23746,-1.22096 -0.157603,-0.348336 -0.388331,-0.617739 -0.691392,-0.810056 -0.304118,-0.190865 -0.644402,-0.286694 -1.02204,-0.286694 -0.537618,0 -0.999338,0.18387 -1.38622,0.553721 -0.387011,0.368135 -0.580516,0.984554 -0.580516,1.84675zm5.87485 2.77943l0 -5.73111 1.14229 0 1.35559 4.0578c0.125396,0.377639 0.217529,0.660373 0.273627,0.848599 0.0654698,-0.208157 0.166842,-0.514914 0.30557,-0.919216l1.3717 -3.98719 1.02072 0 0 5.73111 -0.730991 0 0 -4.79698 -1.66552 4.79698 -0.684397 0 -1.65734 -4.87842 0 4.87842 -0.731255 0zm6.93174 0l0 -5.73111 4.14321 0 0 0.676609 -3.38529 0 0 1.75462 3.1704 0 0 0.672517 -3.1704 0 0 1.95076 3.51887 0 0 0.676609 -4.27679 0zm-35.5462 8.94401l0 -5.73111 1.9736 0c0.445749,0 0.785769,0.028115 1.02072,0.0828932 0.328141,0.0747094 0.608499,0.211985 0.840811,0.409582 0.301478,0.256071 0.528246,0.581836 0.677665,0.979274 0.151003,0.397702 0.225448,0.851503 0.225448,1.36246 0,0.435057 -0.0506863,0.820748 -0.153247,1.15681 -0.101373,0.336324 -0.23086,0.615231 -0.390971,0.835267 -0.158791,0.220432 -0.332233,0.393874 -0.521778,0.51927 -0.188226,0.126716 -0.416446,0.222808 -0.683209,0.288278 -0.268215,0.0652058 -0.575236,0.0972807 -0.9208,0.0972807l-2.06824 0zm0.757918 -0.676609l1.22347 0c0.377771,0 0.675421,-0.0347148 0.890045,-0.105332 0.215021,-0.0707496 0.385823,-0.169482 0.513858,-0.297518 0.180174,-0.178722 0.320353,-0.421726 0.420274,-0.724655 0.100185,-0.304118 0.150871,-0.671065 0.150871,-1.10467 0,-0.599259 -0.0987326,-1.05953 -0.294878,-1.38133 -0.197465,-0.322597 -0.436377,-0.537618 -0.717923,-0.647042 -0.202745,-0.0788013 -0.53115,-0.117344 -0.980726,-0.117344l-1.20499 0 0 4.37789zm5.26226 0.676609l0 -5.73111 4.14334 0 0 0.676609 -3.38529 0 0 1.75462 3.1704 0 0 0.672649 -3.1704 0 0 1.95063 3.51874 0 0 0.676609 -4.27679 0zm5.51464 0l0 -5.73111 0.75937 0 0 5.0545 2.8222 0 0 0.676609 -3.58157 0zm4.83697 0l0 -5.73111 0.757918 0 0 5.73111 -0.757918 0zm3.95472 0l-2.2203 -5.73111 0.821936 0 1.48904 4.16327c0.120248,0.333685 0.220168,0.647174 0.30029,0.93796 0.0893609,-0.312301 0.192053,-0.624471 0.309661,-0.93796l1.54778 -4.16327 0.774021 0 -2.24445 5.73111 -0.777981 0zm3.94125 0l0 -5.73111 4.14321 0 0 0.676609 -3.38529 0 0 1.75462 3.1704 0 0 0.672649 -3.1704 0 0 1.95063 3.51887 0 0 0.676609 -4.27679 0zm5.55873 0l0 -5.73111 2.54052 0c0.511218,0 0.899285,0.0521382 1.16486,0.154699 0.265707,0.102824 0.477692,0.28445 0.637802,0.544613 0.159055,0.261483 0.237592,0.549629 0.237592,0.86457 0,0.406942 -0.130676,0.748678 -0.394798,1.02758 -0.263067,0.278906 -0.670009,0.456176 -1.21977,0.532338 0.201689,0.0960927 0.353748,0.190865 0.45776,0.285638 0.221488,0.202745 0.430965,0.457628 0.629882,0.761746l0.996698 1.55992 -0.954063 0 -0.75805 -1.19298c-0.221488,-0.342924 -0.404302,-0.607047 -0.548309,-0.788409 -0.142819,-0.183078 -0.270855,-0.311113 -0.384371,-0.383183 -0.113516,-0.0732575 -0.22822,-0.123944 -0.345432,-0.153247 -0.086985,-0.0174234 -0.2269,-0.0269271 -0.423177,-0.0269271l-0.879354 0 0 2.54474 -0.757786 0zm0.757786 -3.20102l1.63067 0c0.345564,0 0.617739,-0.0361668 0.812696,-0.108104 0.196145,-0.0720695 0.344112,-0.186774 0.445485,-0.344376 0.101637,-0.157471 0.152323,-0.328141 0.152323,-0.513726 0,-0.270855 -0.0975447,-0.493663 -0.295142,-0.668557 -0.196013,-0.17463 -0.506863,-0.261483 -0.932548,-0.261483l-1.81349 0 0 1.89625zm6.70484 3.20102l0 -2.42713 -2.20842 -3.30398 0.921988 0 1.13015 1.72808c0.208289,0.322861 0.401662,0.645854 0.581836,0.970035 0.172122,-0.300158 0.380279,-0.637802 0.625923,-1.01267l1.11021 -1.68545 0.883314 0 -2.28722 3.30398 0 2.42713 -0.757786 0zm-17.8678 8.94415l0 -5.0545 -1.88793 0 0 -0.676609 4.5421 0 0 0.676609 -1.89625 0 0 5.0545 -0.757918 0zm3.67053 0l0 -5.73111 4.14334 0 0 0.676609 -3.38529 0 0 1.75462 3.1704 0 0 0.672517 -3.1704 0 0 1.95076 3.51874 0 0 0.676609 -4.27679 0zm4.91696 0l2.20168 -5.73111 0.816656 0 2.34582 5.73111 -0.864834 0 -0.668425 -1.73614 -2.39651 0 -0.628562 1.73614 -0.805832 0zm1.65338 -2.35388l1.94403 0 -0.599259 -1.58645c-0.181362,-0.481915 -0.317449,-0.878166 -0.40549,-1.18888 -0.0733895,0.368135 -0.176082,0.732443 -0.309661,1.09543l-0.629618 1.67991zm4.51491 2.35388l0 -5.73111 1.14229 0 1.35559 4.0578c0.125396,0.377639 0.217529,0.660373 0.273627,0.848731 0.0654698,-0.208289 0.166842,-0.515046 0.30557,-0.919348l1.37183 -3.98719 1.02072 0 0 5.73111 -0.731123 0 0 -4.79698 -1.66539 4.79698 -0.684529 0 -1.6572 -4.87842 0 4.87842 -0.731387 0z"/>
  </g>
  <path class="fil1" d="M61.5553 41.3138l0 7.33618 0.87381 0c0.607839,0 1.14453,-0.0806492 1.60995,-0.241816 0.454856,-0.157735 0.846091,-0.393611 1.17397,-0.70776l-0.000527982 -0.000527982 0.000395986 -0.000395986c0.00607179,-0.0059398 0.0121436,-0.0117476 0.0186114,-0.0171594 0.0850051,-0.0831571 0.165126,-0.171858 0.2401,-0.265707 0.0778773,-0.0978086 0.150211,-0.201557 0.216473,-0.311113 0.344112,-0.568768 0.51663,-1.28366 0.51663,-2.14453 0,-1.23244 -0.308077,-2.1477 -0.924364,-2.7463 -0.619323,-0.601371 -1.5656,-0.902057 -2.83896,-0.902057l0 0.00118796 -0.886086 0zm-1.74142 -1.75264l2.40509 0 0 0.00105596c2.00976,0 3.526,0.45578 4.5487,1.36761 1.03366,0.921724 1.55068,2.2892 1.55068,4.10282 0,0.900869 -0.146779,1.69654 -0.439677,2.38674 -0.296066,0.697728 -0.740099,1.28339 -1.3317,1.75712 -0.0058078,0.00475184 -0.0118796,0.00910769 -0.0179514,0.0133315 -0.532074,0.42133 -1.16037,0.737195 -1.88503,0.9472 -0.724523,0.210137 -1.54276,0.315073 -2.45472,0.315073l-2.37539 0c-0.165918,0 -0.300422,-0.134503 -0.300422,-0.30029l0 -10.2902c0,-0.165918 0.134503,-0.300422 0.300422,-0.300422z"/>
  <path class="fil1" d="M49.1509 39.5612l1.44099 0c0.165918,0 0.300422,0.134503 0.300422,0.300422l0 4.05978 4.071 0 0 -4.05978c0,-0.165918 0.134503,-0.300422 0.300422,-0.300422l1.44099 0c0.165918,0 0.300422,0.134503 0.300422,0.300422l0 10.2902c0,0.165786 -0.134503,0.30029 -0.300422,0.30029l-1.44099 0c-0.165918,0 -0.300422,-0.134503 -0.300422,-0.30029l0 -4.45551 -4.071 0 0 4.45551c0,0.165786 -0.134503,0.30029 -0.300422,0.30029l-1.44099 0c-0.165918,0 -0.300422,-0.134503 -0.300422,-0.30029l0 -10.2902c0,-0.165918 0.134503,-0.300422 0.300422,-0.300422z"/>
  <path class="fil1" d="M68.5214 39.5622l7.18689 0c0.165258,0 0.299234,0.134107 0.299234,0.299366l0.00118796 0 0 1.20129c0,0.165786 -0.134635,0.300422 -0.300422,0.300422l-2.58183 0 0 8.78852c0,0.165786 -0.134503,0.30029 -0.300422,0.30029l-1.44852 0c-0.165786,0 -0.30029,-0.134503 -0.30029,-0.30029l0 -8.78852 -2.58183 0c-0.165786,0 -0.300422,-0.134635 -0.300422,-0.300422l0 -1.20129c0,-0.165918 0.134635,-0.300422 0.300422,-0.300422 0.0088437,0 0.0174234,0.000395986 0.0260031,0.00105596z"/>
  <path class="fil1" d="M51.4909 25.8266c0,0.758314 -0.615099,1.37341 -1.37354,1.37341 -0.758446,0 -1.37354,-0.615099 -1.37354,-1.37341l0 -15.217c0,-0.414862 0.18387,-0.786693 0.474788,-1.03854l-0.000791973 -0.000923968 10.6388 -9.23533c0.52323,-0.452744 1.29078,-0.440205 1.79857,0.000263991l0.000263991 -0.000263991 10.6376 9.23533c0.574048,0.496699 0.636614,1.36497 0.140047,1.93888 -0.496699,0.574048 -1.36497,0.636746 -1.93901,0.140047l-9.7381 -8.45444 -9.26516 8.04288 0 14.5891z"/>
  <path class="fil1" d="M78.534 28.5539c0.761482,0 1.37882,0.617475 1.37882,1.37896 0,0.761482 -0.617343,1.37882 -1.37882,1.37882l-0.0209873 0 0 -0.00541181c-1.44654,-0.00158395 -2.85427,-0.162222 -4.20524,-0.465416 -1.36536,-0.306361 -2.66723,-0.75211 -3.88845,-1.32101 -6.3243,-2.94574 -10.7991,-9.23718 -11.1085,-16.6524 -0.029699,-0.758314 0.561245,-1.3977 1.31969,-1.4274 0.758446,-0.029699 1.3977,0.561245 1.4274,1.31969 0.264651,6.347 4.10176,11.7349 9.52479,14.2611 1.06454,0.495907 2.17938,0.879882 3.32813,1.1378 1.16341,0.260955 2.36932,0.399286 3.60216,0.400738l0 -0.00541181 0.0209873 0z"/>
 </g>
</svg>
