<?xml version="1.0" encoding="UTF-8"?>
<!DOCTYPE svg PUBLIC "-//W3C//DTD SVG 1.1//EN" "http://www.w3.org/Graphics/SVG/1.1/DTD/svg11.dtd">
<!-- Creator: CorelDRAW -->
<svg xmlns="http://www.w3.org/2000/svg" xml:space="preserve" width="32.138mm" height="52.0206mm" style="shape-rendering:geometricPrecision; text-rendering:geometricPrecision; image-rendering:optimizeQuality; fill-rule:evenodd; clip-rule:evenodd"
viewBox="0 0 7.22948 11.7021"
 xmlns:xlink="http://www.w3.org/1999/xlink">
 <defs>
  <style type="text/css">
   <![CDATA[
    .fil0 {fill:#1F1A17;fill-rule:nonzero}
    .fil1 {fill:lime;fill-rule:nonzero}
   ]]>
  </style>
 </defs>
 <g id="Layer_x0020_1">
  <metadata id="CorelCorpID_0Corel-Layer"/>
  <g id="_103266296">
   <path id="_103266464" class="fil0" d="M2.97156 9.58249l0 1.7016 0.202658 0c0.140999,0 0.265487,-0.0187159 0.373441,-0.0561028 0.10548,-0.0365771 0.196247,-0.0912852 0.272281,-0.164169l-0.000112476 -0.000112476 8.99804e-005 -6.74853e-005c0.0013947,-0.00141719 0.00283438,-0.0027444 0.00431906,-0.00400413 0.0197057,-0.0193008 0.0382867,-0.0398388 0.0556754,-0.0616366 0.0180861,-0.0226751 0.0348449,-0.0467448 0.0502091,-0.0721418 0.0798127,-0.131934 0.119831,-0.297768 0.119831,-0.497434 0,-0.285845 -0.071467,-0.498154 -0.214401,-0.636972 -0.143631,-0.139492 -0.363116,-0.209227 -0.658454,-0.209227l0 0.000269941 -0.205538 0zm-0.403922 -0.406532l0.557856 0 0 0.000269941c0.466166,0 0.817855,0.105727 1.05504,0.317204 0.239753,0.213771 0.359652,0.530975 0.359652,0.951611 0,0.20898 -0.0340126,0.393507 -0.101948,0.553605 -0.0686776,0.16183 -0.171683,0.297678 -0.30888,0.407566 -0.00134971,0.00107977 -0.0027669,0.00209205 -0.00418409,0.00308183 -0.123431,0.0977188 -0.269154,0.170985 -0.437215,0.21971 -0.168038,0.0487019 -0.35783,0.0730866 -0.569351,0.0730866l-0.550973 0c-0.0384666,0 -0.0696674,-0.0312007 -0.0696674,-0.0696899l0 -2.38675c0,-0.0384891 0.0312007,-0.0696899 0.0696674,-0.0696899z"/>
   <path id="_103266392" class="fil0" d="M0.0944345 9.17596l0.334232 0c0.0384891,0 0.0696899,0.0312007 0.0696899,0.0696899l0 0.941668 0.944232 0 0 -0.941668c0,-0.0384891 0.0312007,-0.0696899 0.0696674,-0.0696899l0.334255 0c0.0384666,0 0.0696674,0.0312007 0.0696674,0.0696899l0 2.38675c0,0.0384891 -0.0312007,0.0696899 -0.0696674,0.0696899l-0.334255 0c-0.0384666,0 -0.0696674,-0.0312007 -0.0696674,-0.0696899l0 -1.0334 -0.944232 0 0 1.0334c0,0.0384891 -0.0312007,0.0696899 -0.0696899,0.0696899l-0.334232 0c-0.0384891,0 -0.0696899,-0.0312007 -0.0696899,-0.0696899l0 -2.38675c0,-0.0384891 0.0312007,-0.0696899 0.0696899,-0.0696899z"/>
   <path id="_103266320" class="fil0" d="M4.58729 9.17623l1.66696 0c0.0383317,0 0.0693974,0.0310882 0.0693974,0.0694199l0.000269941 0 0 0.278624c0,0.0384891 -0.0312007,0.0696899 -0.0696674,0.0696899l-0.598842 0 0 2.03844c0,0.0384891 -0.0312007,0.0696899 -0.0696674,0.0696899l-0.335964 0c-0.0384891,0 -0.0696899,-0.0312007 -0.0696899,-0.0696899l0 -2.03844 -0.59882 0c-0.0384666,0 -0.0696674,-0.0312007 -0.0696674,-0.0696899l0 -0.278624c0,-0.0384891 0.0312007,-0.0696899 0.0696674,-0.0696899 0.00204706,0 0.00404912,0.000112476 0.00602869,0.000269941z"/>
  </g>
  <path class="fil1" d="M0.637174 5.99031c0,0.175934 -0.142664,0.318598 -0.318576,0.318598 -0.175934,0 -0.318598,-0.142664 -0.318598,-0.318598l0 -3.52946c0,-0.0962341 0.0426507,-0.182458 0.110136,-0.240878l-0.000179961 -0.000202456 2.4676 -2.1421c0.121384,-0.10503 0.299387,-0.102128 0.417172,6.74853e-005l6.74853e-005 -6.74853e-005 2.46733 2.1421c0.133149,0.115175 0.147658,0.316574 0.0324829,0.4497 -0.115197,0.133149 -0.316596,0.14768 -0.449722,0.0324829l-2.25871 -1.96097 -2.149 1.8655 0 3.38383z"/>
  <path class="fil1" d="M6.90967 6.62292c0.176609,0 0.319813,0.143204 0.319813,0.319835 0,0.176609 -0.143204,0.319813 -0.319813,0.319813l-0.00488144 0 0 -0.00123723c-0.335492,-0.000382417 -0.662031,-0.0376568 -0.975366,-0.107977 -0.316686,-0.0710621 -0.618638,-0.17445 -0.901896,-0.306406 -1.46688,-0.683244 -2.50481,-2.1425 -2.57655,-3.86241 -0.0068835,-0.175912 0.130157,-0.324177 0.306068,-0.331083 0.175934,-0.0068835 0.3242,0.130179 0.331083,0.306091 0.0614117,1.47215 0.951386,2.72186 2.20924,3.30775 0.246906,0.11504 0.505465,0.204098 0.771942,0.263913 0.269829,0.0605568 0.549533,0.0926124 0.835468,0.0929498l0 -0.00123723 0.00488144 0z"/>
 </g>
</svg>
